<svg width="69" height="68" viewBox="0 0 69 68" fill="none" xmlns="http://www.w3.org/2000/svg">
<g clip-path="url(#clip0_759_2417)">
<path d="M45.438 19.1734C34.9911 16.7476 24.522 23.2887 22.1008 33.7547C19.6797 44.2207 26.2094 54.7083 36.6563 57.1337C38.128 57.4753 39.5992 57.6388 41.0487 57.6388C49.8918 57.6388 57.9139 51.5436 59.994 42.5524C62.4147 32.0864 55.8849 21.5987 45.438 19.1734ZM56.4639 39.6988L53.3425 38.9738L52.4492 42.8346L55.5707 43.5591C53.1304 50.1539 46.4902 54.3022 39.5053 53.5973L40.2835 50.2313L36.4298 49.3371L35.6511 52.7031C29.0677 50.2576 24.9266 43.6066 25.6304 36.6083L28.7524 37.3333L29.6456 33.4724L26.5247 32.7479C28.7849 26.6413 34.6443 22.6313 41.0461 22.6313C41.5575 22.6313 42.0725 22.6586 42.5896 22.7108L41.8661 25.8363L45.7203 26.7311L46.4437 23.604C53.0267 26.0489 57.1677 32.7005 56.4639 39.6988Z" fill="white"/>
<path d="M42.0029 34.9342C41.9373 34.9146 41.8713 34.8965 41.8042 34.8811C40.9316 34.6783 40.0327 34.8284 39.2726 35.3032C38.513 35.7779 37.983 36.521 37.7807 37.3946C37.579 38.2687 37.7281 39.1697 38.2023 39.9309C38.6761 40.692 39.4181 41.223 40.2907 41.4258C40.5441 41.4846 40.8 41.5135 41.0539 41.5135C41.6741 41.5135 42.2831 41.3401 42.8223 41.0032C43.5819 40.5284 44.1118 39.7859 44.3141 38.9117C44.3368 38.8121 44.3549 38.712 44.3688 38.6119L50.2881 32.0801L42.0029 34.9342Z" fill="#B9EA2E"/>
<path d="M68.1157 23.1008L65.805 19.8845L62.6273 22.1751C59.3289 17.697 54.6408 14.2175 49.0193 12.4708L49.8077 9.06242L54.5118 10.1543L55.4045 6.29396L42.1432 3.21484L41.25 7.07573L45.9541 8.16764L45.1656 11.5755C39.2427 10.6502 33.3992 11.7659 28.4103 14.4378L25.9824 11.0605L22.7722 13.3769L25.0618 16.5613C21.5271 19.1832 18.6188 22.6767 16.6997 26.8152H0.479492V30.7782H7.85399H15.2285C15.1062 31.2076 14.9942 31.6416 14.8925 32.0812C11.5503 46.5288 20.5642 61.0069 34.986 64.3549C37.0165 64.8265 39.0646 65.0592 41.0983 65.0592C46.0624 65.0592 50.9394 63.6711 55.2554 60.9744C61.3403 57.1723 65.5831 51.2241 67.2024 44.2258C68.7236 37.6506 67.6843 31.0693 64.742 25.5334L68.1157 23.1008ZM63.3487 43.331C61.9678 49.2983 58.3505 54.3698 53.1619 57.6115C47.9738 60.8536 41.8362 61.8769 35.8792 60.494C23.5824 57.6393 15.8962 45.2945 18.7462 32.976C20.1266 27.0082 23.7444 21.9367 28.9325 18.695C32.6133 16.3951 36.7709 15.2119 41.0039 15.2119C42.7377 15.2119 44.4844 15.4105 46.2157 15.8125C52.1722 17.1955 57.2354 20.8195 60.4714 26.0169C63.7073 31.2143 64.7291 37.3632 63.3487 43.331Z" fill="white"/>
<path d="M0.479492 42.668H7.17283V46.631H0.479492V42.668Z" fill="white"/>
<path d="M0.479492 34.7422H11.1292V38.7052H0.479492V34.7422Z" fill="white"/>
</g>
<defs>
<clipPath id="clip0_759_2417">
<rect width="67.6362" height="67.6362" fill="white" transform="translate(0.479492 0.308594)"/>
</clipPath>
</defs>
</svg>
