<svg width="48" height="48" viewBox="0 0 48 48" fill="none" xmlns="http://www.w3.org/2000/svg">
<g clip-path="url(#clip0_759_2295)">
<path d="M24.2973 0.640625C15.5256 0.640625 8.38922 7.77685 8.38922 16.5486C8.38922 24.3173 13.9872 30.8022 21.3611 32.1838V35.7434H15.3153V41.5946H21.3611V47.6406H27.2123V41.5946H33.2583V35.7434H27.2123V32.1879C34.5965 30.8147 40.2051 24.3248 40.2051 16.5486C40.2051 7.77685 33.0689 0.640625 24.2973 0.640625ZM24.2973 26.6053C18.7519 26.6053 14.2404 22.0939 14.2404 16.5486C14.2404 11.0032 18.7519 6.49181 24.2973 6.49181C29.8425 6.49181 34.3539 11.0032 34.3539 16.5486C34.3539 22.0938 29.8425 26.6053 24.2973 26.6053Z" fill="url(#paint0_linear_759_2295)"/>
</g>
<defs>
<linearGradient id="paint0_linear_759_2295" x1="8.38922" y1="24.1406" x2="40.2051" y2="24.1406" gradientUnits="userSpaceOnUse">
<stop stop-color="#A575FF"/>
<stop offset="1" stop-color="#7126FF"/>
</linearGradient>
<clipPath id="clip0_759_2295">
<rect width="47" height="47" fill="white" transform="translate(0.797607 0.640625)"/>
</clipPath>
</defs>
</svg>
