<svg width="48" height="48" viewBox="0 0 48 48" fill="none" xmlns="http://www.w3.org/2000/svg">
<g clip-path="url(#clip0_759_2143)">
<path d="M24.2975 0.163086C15.5259 0.163086 8.38947 7.29931 8.38947 16.071C8.38947 23.8398 13.9875 30.3247 21.3614 31.7063V35.2659H15.3155V41.117H21.3614V47.1631H27.2125V41.117H33.2586V35.2659H27.2125V31.7103C34.5968 30.3372 40.2054 23.8472 40.2054 16.071C40.2054 7.29931 33.0691 0.163086 24.2975 0.163086ZM24.2975 26.1278C18.7522 26.1278 14.2406 21.6164 14.2406 16.071C14.2406 10.5257 18.7522 6.01427 24.2975 6.01427C29.8428 6.01427 34.3542 10.5257 34.3542 16.071C34.3542 21.6163 29.8428 26.1278 24.2975 26.1278Z" fill="url(#paint0_linear_759_2143)"/>
</g>
<defs>
<linearGradient id="paint0_linear_759_2143" x1="8.38947" y1="23.6631" x2="40.2054" y2="23.6631" gradientUnits="userSpaceOnUse">
<stop stop-color="#A575FF"/>
<stop offset="1" stop-color="#7126FF"/>
</linearGradient>
<clipPath id="clip0_759_2143">
<rect width="47" height="47" fill="white" transform="translate(0.797852 0.163086)"/>
</clipPath>
</defs>
</svg>
