<svg width="50" height="51" viewBox="0 0 50 51" fill="none" xmlns="http://www.w3.org/2000/svg">
<path d="M16.8701 23.6374C8.44824 23.6374 1.55762 30.6686 1.55762 39.2624V47.6999C1.55762 48.5593 2.24668 49.2624 3.08887 49.2624H30.6514C31.4936 49.2624 32.1826 48.5593 32.1826 47.6999V39.2624C32.1826 30.5905 25.292 23.6374 16.8701 23.6374Z" fill="url(#paint0_linear_685_3323)"/>
<path d="M17.0998 20.9811C22.0764 20.9811 26.1342 16.8405 26.1342 11.7624C26.1342 6.68426 22.0764 2.54364 17.0998 2.54364C12.1232 2.54364 8.06543 6.68426 8.06543 11.7624C8.06543 16.8405 12.1232 20.9811 17.0998 20.9811Z" fill="url(#paint1_linear_685_3323)"/>
<path d="M36.3168 27.5436H35.3215C34.0965 27.5436 32.7949 27.778 31.6465 28.0905C33.8668 31.2155 35.1684 35.0436 35.1684 39.1843V47.6218C35.1684 48.1686 35.0918 48.7155 34.9387 49.1843H47.1887C48.0309 49.1843 48.7199 48.4811 48.7199 47.6218V40.1999C48.7199 33.2468 43.2074 27.5436 36.3168 27.5436Z" fill="url(#paint2_linear_685_3323)"/>
<path d="M36.0872 25.9811C40.2981 25.9811 43.82 22.4655 43.82 18.0905C43.82 13.7936 40.3747 10.278 36.0872 10.278C31.8763 10.278 28.4309 13.7936 28.4309 18.0905C28.3544 22.4655 31.7997 25.9811 36.0872 25.9811Z" fill="url(#paint3_linear_685_3323)"/>
<defs>
<linearGradient id="paint0_linear_685_3323" x1="1.55762" y1="36.4499" x2="32.1826" y2="36.4499" gradientUnits="userSpaceOnUse">
<stop stop-color="#A575FF"/>
<stop offset="1" stop-color="#7126FF"/>
</linearGradient>
<linearGradient id="paint1_linear_685_3323" x1="8.06543" y1="11.7624" x2="26.1342" y2="11.7624" gradientUnits="userSpaceOnUse">
<stop stop-color="#A575FF"/>
<stop offset="1" stop-color="#7126FF"/>
</linearGradient>
<linearGradient id="paint2_linear_685_3323" x1="31.6465" y1="38.364" x2="48.7199" y2="38.364" gradientUnits="userSpaceOnUse">
<stop stop-color="#A575FF"/>
<stop offset="1" stop-color="#7126FF"/>
</linearGradient>
<linearGradient id="paint3_linear_685_3323" x1="28.4297" y1="18.1296" x2="43.82" y2="18.1296" gradientUnits="userSpaceOnUse">
<stop stop-color="#A575FF"/>
<stop offset="1" stop-color="#7126FF"/>
</linearGradient>
</defs>
</svg>
