<svg width="50" height="51" viewBox="0 0 50 51" fill="none" xmlns="http://www.w3.org/2000/svg">
<g clip-path="url(#clip0_759_2237)">
<path d="M17.0293 23.2568C8.60742 23.2568 1.7168 30.2881 1.7168 38.8818V47.3193C1.7168 48.1787 2.40586 48.8818 3.24805 48.8818H30.8105C31.6527 48.8818 32.3418 48.1787 32.3418 47.3193V38.8818C32.3418 30.21 25.4512 23.2568 17.0293 23.2568Z" fill="url(#paint0_linear_759_2237)"/>
<path d="M17.259 20.6006C22.2355 20.6006 26.2934 16.46 26.2934 11.3818C26.2934 6.30371 22.2355 2.16309 17.259 2.16309C12.2824 2.16309 8.22461 6.30371 8.22461 11.3818C8.22461 16.46 12.2824 20.6006 17.259 20.6006Z" fill="url(#paint1_linear_759_2237)"/>
<path d="M36.4762 27.1631H35.4808C34.2558 27.1631 32.9543 27.3975 31.8058 27.71C34.0262 30.835 35.3277 34.6631 35.3277 38.8037V47.2412C35.3277 47.7881 35.2512 48.335 35.098 48.8037H47.348C48.1902 48.8037 48.8793 48.1006 48.8793 47.2412V39.8193C48.8793 32.8662 43.3668 27.1631 36.4762 27.1631Z" fill="url(#paint2_linear_759_2237)"/>
<path d="M36.2465 25.6006C40.4574 25.6006 43.9793 22.085 43.9793 17.71C43.9793 13.4131 40.534 9.89746 36.2465 9.89746C32.0356 9.89746 28.5902 13.4131 28.5902 17.71C28.5137 22.085 31.959 25.6006 36.2465 25.6006Z" fill="url(#paint3_linear_759_2237)"/>
<path d="M26.5789 10.6181H25.9168V9.36174C25.9168 5.24739 22.0465 1.9209 17.2594 1.9209C12.4724 1.9209 8.60204 5.24739 8.60204 9.36174V10.6181H7.68537C6.87056 10.6181 6.15759 11.1871 6.15759 11.9312V15.564C6.15759 16.2644 6.81963 16.8771 7.68537 16.8771H9.46778C9.5187 16.8771 9.56963 16.8334 9.56963 16.7896V11.0558V10.6181V9.2742C9.56963 5.68509 12.9817 2.75252 17.1576 2.75252C21.3335 2.75252 24.7456 5.68509 24.7456 9.2742V10.6181V11.0558V16.8334C24.7456 16.8771 24.7965 16.9209 24.8474 16.9209H26.6298C27.4446 16.9209 28.1576 16.3519 28.1576 15.6078V11.9749C28.1067 11.1871 27.4446 10.6181 26.5789 10.6181Z" fill="#B9EA2E"/>
<path d="M19.2373 18.4787H17.8779C17.3795 18.4787 16.9717 18.8584 16.9717 19.3225H11.5795C11.3529 19.3225 11.1263 19.1537 11.1263 18.9006V17.5928H11.081H10.2201V18.9006C10.2201 19.5756 10.8092 20.1662 11.5795 20.1662H16.9717V20.2928C16.9717 20.7568 17.3795 21.1365 17.8779 21.1365H19.2373C19.7357 21.1365 20.1435 20.7568 20.1435 20.2928V19.3225C20.0982 18.8584 19.6904 18.4787 19.2373 18.4787Z" fill="#B9EA2E"/>
</g>
<defs>
<linearGradient id="paint0_linear_759_2237" x1="1.7168" y1="36.0693" x2="32.3418" y2="36.0693" gradientUnits="userSpaceOnUse">
<stop stop-color="#A575FF"/>
<stop offset="1" stop-color="#7126FF"/>
</linearGradient>
<linearGradient id="paint1_linear_759_2237" x1="8.22461" y1="11.3818" x2="26.2934" y2="11.3818" gradientUnits="userSpaceOnUse">
<stop stop-color="#A575FF"/>
<stop offset="1" stop-color="#7126FF"/>
</linearGradient>
<linearGradient id="paint2_linear_759_2237" x1="31.8058" y1="37.9834" x2="48.8793" y2="37.9834" gradientUnits="userSpaceOnUse">
<stop stop-color="#A575FF"/>
<stop offset="1" stop-color="#7126FF"/>
</linearGradient>
<linearGradient id="paint3_linear_759_2237" x1="28.589" y1="17.749" x2="43.9793" y2="17.749" gradientUnits="userSpaceOnUse">
<stop stop-color="#A575FF"/>
<stop offset="1" stop-color="#7126FF"/>
</linearGradient>
<clipPath id="clip0_759_2237">
<rect width="49" height="50" fill="white" transform="translate(0.797852 0.522461)"/>
</clipPath>
</defs>
</svg>
