<svg width="50" height="51" viewBox="0 0 50 51" fill="none" xmlns="http://www.w3.org/2000/svg">
<path d="M16.3613 23.5176C7.93945 23.5176 1.04883 30.5488 1.04883 39.1426V47.5801C1.04883 48.4395 1.73789 49.1426 2.58008 49.1426H30.1426C30.9848 49.1426 31.6738 48.4395 31.6738 47.5801V39.1426C31.6738 30.4707 24.7832 23.5176 16.3613 23.5176Z" fill="url(#paint0_linear_759_2109)"/>
<path d="M16.591 20.8613C21.5676 20.8613 25.6254 16.7207 25.6254 11.6426C25.6254 6.56445 21.5676 2.42383 16.591 2.42383C11.6145 2.42383 7.55664 6.56445 7.55664 11.6426C7.55664 16.7207 11.6145 20.8613 16.591 20.8613Z" fill="url(#paint1_linear_759_2109)"/>
<path d="M35.8083 27.4238H34.8129C33.5879 27.4238 32.2864 27.6582 31.1379 27.9707C33.3583 31.0957 34.6598 34.9238 34.6598 39.0645V47.502C34.6598 48.0488 34.5833 48.5957 34.4301 49.0645H46.6801C47.5223 49.0645 48.2114 48.3613 48.2114 47.502V40.0801C48.2114 33.127 42.6989 27.4238 35.8083 27.4238Z" fill="url(#paint2_linear_759_2109)"/>
<path d="M35.5785 25.8613C39.7895 25.8613 43.3113 22.3457 43.3113 17.9707C43.3113 13.6738 39.866 10.1582 35.5785 10.1582C31.3676 10.1582 27.9223 13.6738 27.9223 17.9707C27.8457 22.3457 31.291 25.8613 35.5785 25.8613Z" fill="url(#paint3_linear_759_2109)"/>
<defs>
<linearGradient id="paint0_linear_759_2109" x1="1.04883" y1="36.3301" x2="31.6738" y2="36.3301" gradientUnits="userSpaceOnUse">
<stop stop-color="#A575FF"/>
<stop offset="1" stop-color="#7126FF"/>
</linearGradient>
<linearGradient id="paint1_linear_759_2109" x1="7.55664" y1="11.6426" x2="25.6254" y2="11.6426" gradientUnits="userSpaceOnUse">
<stop stop-color="#A575FF"/>
<stop offset="1" stop-color="#7126FF"/>
</linearGradient>
<linearGradient id="paint2_linear_759_2109" x1="31.1379" y1="38.2441" x2="48.2114" y2="38.2441" gradientUnits="userSpaceOnUse">
<stop stop-color="#A575FF"/>
<stop offset="1" stop-color="#7126FF"/>
</linearGradient>
<linearGradient id="paint3_linear_759_2109" x1="27.921" y1="18.0098" x2="43.3113" y2="18.0098" gradientUnits="userSpaceOnUse">
<stop stop-color="#A575FF"/>
<stop offset="1" stop-color="#7126FF"/>
</linearGradient>
</defs>
</svg>
