<svg width="50" height="51" viewBox="0 0 50 51" fill="none" xmlns="http://www.w3.org/2000/svg">
<path d="M16.3614 22.9951C7.93951 22.9951 1.04889 30.0264 1.04889 38.6201V47.0576C1.04889 47.917 1.73795 48.6201 2.58014 48.6201H30.1426C30.9848 48.6201 31.6739 47.917 31.6739 47.0576V38.6201C31.6739 29.9482 24.7833 22.9951 16.3614 22.9951Z" fill="url(#paint0_linear_759_2167)"/>
<path d="M16.5911 20.3389C21.5676 20.3389 25.6255 16.1982 25.6255 11.1201C25.6255 6.04199 21.5676 1.90137 16.5911 1.90137C11.6145 1.90137 7.5567 6.04199 7.5567 11.1201C7.5567 16.1982 11.6145 20.3389 16.5911 20.3389Z" fill="url(#paint1_linear_759_2167)"/>
<path d="M35.8083 26.9014H34.8129C33.5879 26.9014 32.2864 27.1357 31.1379 27.4482C33.3583 30.5732 34.6598 34.4014 34.6598 38.542V46.9795C34.6598 47.5264 34.5833 48.0732 34.4301 48.542H46.6801C47.5223 48.542 48.2114 47.8389 48.2114 46.9795V39.5576C48.2114 32.6045 42.6989 26.9014 35.8083 26.9014Z" fill="url(#paint2_linear_759_2167)"/>
<path d="M35.5786 25.3389C39.7895 25.3389 43.3114 21.8232 43.3114 17.4482C43.3114 13.1514 39.8661 9.63574 35.5786 9.63574C31.3676 9.63574 27.9223 13.1514 27.9223 17.4482C27.8458 21.8232 31.2911 25.3389 35.5786 25.3389Z" fill="url(#paint3_linear_759_2167)"/>
<defs>
<linearGradient id="paint0_linear_759_2167" x1="1.04889" y1="35.8076" x2="31.6739" y2="35.8076" gradientUnits="userSpaceOnUse">
<stop stop-color="#A575FF"/>
<stop offset="1" stop-color="#7126FF"/>
</linearGradient>
<linearGradient id="paint1_linear_759_2167" x1="7.5567" y1="11.1201" x2="25.6255" y2="11.1201" gradientUnits="userSpaceOnUse">
<stop stop-color="#A575FF"/>
<stop offset="1" stop-color="#7126FF"/>
</linearGradient>
<linearGradient id="paint2_linear_759_2167" x1="31.1379" y1="37.7217" x2="48.2114" y2="37.7217" gradientUnits="userSpaceOnUse">
<stop stop-color="#A575FF"/>
<stop offset="1" stop-color="#7126FF"/>
</linearGradient>
<linearGradient id="paint3_linear_759_2167" x1="27.9211" y1="17.4873" x2="43.3114" y2="17.4873" gradientUnits="userSpaceOnUse">
<stop stop-color="#A575FF"/>
<stop offset="1" stop-color="#7126FF"/>
</linearGradient>
</defs>
</svg>
