<svg width="50" height="51" viewBox="0 0 50 51" fill="none" xmlns="http://www.w3.org/2000/svg">
<g clip-path="url(#clip0_685_3439)">
<path d="M16.2822 23.6374C7.86035 23.6374 0.969727 30.6686 0.969727 39.2624V47.6999C0.969727 48.5593 1.65879 49.2624 2.50098 49.2624H30.0635C30.9057 49.2624 31.5947 48.5593 31.5947 47.6999V39.2624C31.5947 30.5905 24.7041 23.6374 16.2822 23.6374Z" fill="url(#paint0_linear_685_3439)"/>
<path d="M16.5119 20.9811C21.4885 20.9811 25.5463 16.8405 25.5463 11.7624C25.5463 6.68426 21.4885 2.54364 16.5119 2.54364C11.5354 2.54364 7.47754 6.68426 7.47754 11.7624C7.47754 16.8405 11.5354 20.9811 16.5119 20.9811Z" fill="url(#paint1_linear_685_3439)"/>
<path d="M35.7289 27.5436H34.7336C33.5086 27.5436 32.207 27.778 31.0586 28.0905C33.2789 31.2155 34.5805 35.0436 34.5805 39.1843V47.6218C34.5805 48.1686 34.5039 48.7155 34.3508 49.1843H46.6008C47.443 49.1843 48.132 48.4811 48.132 47.6218V40.1999C48.132 33.2468 42.6195 27.5436 35.7289 27.5436Z" fill="url(#paint2_linear_685_3439)"/>
<path d="M35.4993 25.9811C39.7102 25.9811 43.2321 22.4655 43.2321 18.0905C43.2321 13.7936 39.7868 10.278 35.4993 10.278C31.2884 10.278 27.843 13.7936 27.843 18.0905C27.7665 22.4655 31.2118 25.9811 35.4993 25.9811Z" fill="url(#paint3_linear_685_3439)"/>
</g>
<defs>
<linearGradient id="paint0_linear_685_3439" x1="0.969727" y1="36.4499" x2="31.5947" y2="36.4499" gradientUnits="userSpaceOnUse">
<stop stop-color="#A575FF"/>
<stop offset="1" stop-color="#7126FF"/>
</linearGradient>
<linearGradient id="paint1_linear_685_3439" x1="7.47754" y1="11.7624" x2="25.5463" y2="11.7624" gradientUnits="userSpaceOnUse">
<stop stop-color="#A575FF"/>
<stop offset="1" stop-color="#7126FF"/>
</linearGradient>
<linearGradient id="paint2_linear_685_3439" x1="31.0586" y1="38.364" x2="48.132" y2="38.364" gradientUnits="userSpaceOnUse">
<stop stop-color="#A575FF"/>
<stop offset="1" stop-color="#7126FF"/>
</linearGradient>
<linearGradient id="paint3_linear_685_3439" x1="27.8418" y1="18.1296" x2="43.2321" y2="18.1296" gradientUnits="userSpaceOnUse">
<stop stop-color="#A575FF"/>
<stop offset="1" stop-color="#7126FF"/>
</linearGradient>
<clipPath id="clip0_685_3439">
<rect width="49" height="50" fill="white" transform="translate(0.0507812 0.903015)"/>
</clipPath>
</defs>
</svg>
