<svg width="69" height="68" viewBox="0 0 69 68" fill="none" xmlns="http://www.w3.org/2000/svg">
<g clip-path="url(#clip0_759_2453)">
<path d="M20.4607 29.9363C20.4607 25.5656 16.9048 22.0098 12.5341 22.0098C8.1634 22.0098 4.60754 25.5656 4.60754 29.9363C4.60754 34.307 8.1634 37.8629 12.5341 37.8629C16.9048 37.8629 20.4607 34.307 20.4607 29.9363ZM12.5341 33.8996C10.3488 33.8996 8.57083 32.1217 8.57083 29.9363C8.57083 27.751 10.3488 25.973 12.5341 25.973C14.7195 25.973 16.4974 27.751 16.4974 29.9363C16.4974 32.1217 14.7195 33.8996 12.5341 33.8996Z" fill="white"/>
<path d="M64.321 29.9363C64.321 25.5656 60.7652 22.0098 56.3945 22.0098C52.0238 22.0098 48.4679 25.5656 48.4679 29.9363C48.4679 34.307 52.0238 37.8629 56.3945 37.8629C60.7652 37.8629 64.321 34.307 64.321 29.9363ZM56.3945 33.8996C54.2091 33.8996 52.4312 32.1217 52.4312 29.9363C52.4312 27.751 54.2091 25.973 56.3945 25.973C58.5798 25.973 60.3577 27.751 60.3577 29.9363C60.3577 32.1217 58.5798 33.8996 56.3945 33.8996Z" fill="white"/>
<path d="M58.3761 37.8633H48.889C46.0651 37.8633 43.6134 35.8534 43.0596 33.0842L40.4512 20.0423L40.8789 18.0469H28.8765L25.8689 33.0842C25.324 35.8087 22.7611 37.8633 19.9074 37.8633H10.5525C5.08911 37.8633 0.644287 42.3081 0.644287 47.7715V65.6063H24.424V49.616C28.5546 49.0409 32.2047 46.6949 34.4535 43.3218C36.7832 46.875 40.4429 49.0577 44.3725 49.6135V65.6063H68.2843V47.7715C68.2843 42.3081 63.8395 37.8633 58.3761 37.8633ZM22.4423 45.7898H20.4607V61.643H4.60757V47.7715C4.60757 44.4935 7.27446 41.8266 10.5525 41.8266H19.9074C24.6906 41.8266 28.8323 38.4768 29.7554 33.8614L32.1256 22.0102H35.9763L32.6211 37.668C31.6126 42.3742 27.3318 45.7898 22.4423 45.7898ZM64.321 61.643H48.3358V45.7898H46.3541C41.8104 45.7898 37.7919 42.7449 36.5079 38.4444L38.3606 29.7984L39.1732 33.8614C40.0964 38.4768 44.1825 41.8266 48.889 41.8266H58.3761C61.6541 41.8266 64.321 44.4935 64.321 47.7715V61.643Z" fill="white"/>
<path d="M32.4827 2.19336H36.4459V10.1199H32.4827V2.19336Z" fill="#B9EA2E"/>
<path d="M38.1821 11.5244L43.7862 5.92033L46.5882 8.72237L40.9842 14.3265L38.1821 11.5244Z" fill="#B9EA2E"/>
<path d="M22.3307 8.7207L25.1327 5.91866L30.7368 11.5227L27.9348 14.3248L22.3307 8.7207Z" fill="#B9EA2E"/>
</g>
<defs>
<clipPath id="clip0_759_2453">
<rect width="67.64" height="67.64" fill="white" transform="translate(0.644287 0.0800781)"/>
</clipPath>
</defs>
</svg>
