<svg width="32" height="33" viewBox="0 0 32 33" fill="none" xmlns="http://www.w3.org/2000/svg">
<g clip-path="url(#clip0_685_3847)">
<path fill-rule="evenodd" clip-rule="evenodd" d="M21.4881 7.43433H10.5125C8.76086 7.43433 7.33545 8.85964 7.33545 10.6114V21.5869C7.33545 23.3389 8.76086 24.7643 10.5125 24.7643H21.4881C23.24 24.7643 24.6654 23.3389 24.6654 21.5869V10.6114C24.6654 8.85973 23.24 7.43433 21.4881 7.43433ZM16.0001 21.8041C12.8547 21.8041 10.2953 19.2447 10.2953 16.0989C10.2953 12.9535 12.8547 10.3942 16.0001 10.3942C19.1458 10.3942 21.7052 12.9535 21.7052 16.0989C21.7052 19.2447 19.1458 21.8041 16.0001 21.8041ZM21.8888 11.5738C21.1441 11.5738 20.5385 10.9683 20.5385 10.224C20.5385 9.47969 21.1441 8.87415 21.8888 8.87415C22.633 8.87415 23.2386 9.47969 23.2386 10.224C23.2386 10.9684 22.633 11.5738 21.8888 11.5738Z" fill="white"/>
<path fill-rule="evenodd" clip-rule="evenodd" d="M15.9996 12.8051C14.1838 12.8051 12.7051 14.2831 12.7051 16.0989C12.7051 17.9155 14.1838 19.3938 15.9996 19.3938C17.8161 19.3938 19.2937 17.9155 19.2937 16.0989C19.2937 14.2831 17.8161 12.8051 15.9996 12.8051Z" fill="white"/>
<path fill-rule="evenodd" clip-rule="evenodd" d="M0 0.0991211V32.0991H32V0.0991211H0ZM27.0755 21.5869C27.0755 24.6684 24.5693 27.1746 21.4878 27.1746H10.5123C7.43103 27.1746 4.92448 24.6684 4.92448 21.5869V10.6114C4.92448 7.53015 7.43103 5.0236 10.5123 5.0236H21.4878C24.5693 5.0236 27.0755 7.53015 27.0755 10.6114V21.5869Z" fill="white"/>
</g>
<defs>
<clipPath id="clip0_685_3847">
<rect width="32" height="32" fill="white" transform="translate(0 0.0991211)"/>
</clipPath>
</defs>
</svg>
