<svg width="33" height="33" viewBox="0 0 33 33" fill="none" xmlns="http://www.w3.org/2000/svg">
<g clip-path="url(#clip0_778_1326)">
<path fill-rule="evenodd" clip-rule="evenodd" d="M22.2854 7.83496H11.3099C9.55822 7.83496 8.13282 9.26028 8.13282 11.012V21.9875C8.13282 23.7395 9.55822 25.1649 11.3099 25.1649H22.2854C24.0373 25.1649 25.4628 23.7395 25.4628 21.9875V11.012C25.4628 9.26037 24.0373 7.83496 22.2854 7.83496ZM16.7974 22.2047C13.652 22.2047 11.0926 19.6453 11.0926 16.4996C11.0926 13.3542 13.652 10.7948 16.7974 10.7948C19.9432 10.7948 22.5026 13.3542 22.5026 16.4996C22.5026 19.6453 19.9432 22.2047 16.7974 22.2047ZM22.6861 11.9745C21.9414 11.9745 21.3359 11.3689 21.3359 10.6247C21.3359 9.88032 21.9414 9.27479 22.6861 9.27479C23.4304 9.27479 24.0359 9.88032 24.0359 10.6247C24.0359 11.369 23.4304 11.9745 22.6861 11.9745Z" fill="white"/>
<path fill-rule="evenodd" clip-rule="evenodd" d="M16.7974 13.2061C14.9816 13.2061 13.5029 14.684 13.5029 16.4999C13.5029 18.3164 14.9816 19.7947 16.7974 19.7947C18.614 19.7947 20.0916 18.3164 20.0916 16.4999C20.0916 14.684 18.614 13.2061 16.7974 13.2061Z" fill="white"/>
<path fill-rule="evenodd" clip-rule="evenodd" d="M0.797607 0.5V32.5H32.7976V0.5H0.797607ZM27.8731 21.9877C27.8731 25.0693 25.3669 27.5755 22.2854 27.5755H11.3099C8.22864 27.5755 5.72209 25.0693 5.72209 21.9877V11.0123C5.72209 7.93103 8.22864 5.42448 11.3099 5.42448H22.2854C25.3669 5.42448 27.8731 7.93103 27.8731 11.0123V21.9877Z" fill="white"/>
</g>
<defs>
<clipPath id="clip0_778_1326">
<rect width="32" height="32" fill="white" transform="translate(0.797607 0.5)"/>
</clipPath>
</defs>
</svg>
