<svg width="439" height="46" viewBox="0 0 439 46" fill="none" xmlns="http://www.w3.org/2000/svg">
<g clip-path="url(#clip0_778_1303)">
<path d="M43.2164 15.5929C37.9087 13.0573 30.1083 10.6505 25.2518 10.6505C22.8666 10.6505 20.8251 11.3167 20.8251 13.1862C20.8251 19.8262 48.9324 15.8723 48.9324 32.0103C48.9324 41.6803 38.3599 45.9995 26.7345 45.9995C17.6233 45.9995 7.6955 43.3779 0.776123 38.8652L6.85744 28.916C12.2511 32.7624 21.1904 35.7494 26.885 35.7494C29.8934 35.7494 32.3431 34.9328 32.3431 32.6765C32.3431 25.886 4.23581 30.0978 4.23581 14.3896C4.2573 5.5362 13.5619 0.400391 26.6056 0.400391C34.7498 0.400391 43.1734 2.39884 49.1473 5.51471L43.2164 15.5929Z" fill="white"/>
<path d="M112.41 1.41016H128.441V45.2472H112.41V1.41016Z" fill="white"/>
<path d="M137.294 1.41016H153.325V34.3524H175.931V45.2472H137.273V1.41016H137.294Z" fill="white"/>
<path d="M179.584 1.41016H195.615V34.3524H218.221V45.2472H179.562V1.41016H179.584Z" fill="white"/>
<path d="M221.874 1.41016H239.065L253.441 26.7454L267.817 1.41016H285.008V45.2472H270.89L270.847 19.3103L258.663 45.2472H248.24L235.97 19.3103V45.2472H221.852V1.41016H221.874Z" fill="white"/>
<path d="M311.009 1.41016H327.469L349.732 45.2472H332.584L329.425 38.2634H307.764L304.562 45.2472H288.038L311.009 1.41016ZM325.149 28.7009L318.767 14.4108L312.191 28.7009H325.149Z" fill="white"/>
<path d="M393.547 1.41016H437.664V11.4884H409.6V18.2573H435.021V28.3141H409.6V35.212H438.394V45.2687H393.547V1.41016Z" fill="white"/>
<path d="M88.1708 19.1599L107.79 1.41016H89.2452L71.2591 18.902V1.41016H55.2285V18.902L71.2591 18.9235L55.2285 31.9671V45.2472H71.2591V34.4813L77.1685 29.1521L89.7824 45.2472H109.015L88.1708 19.1599Z" fill="white"/>
<path d="M342.705 1.41016V11.8322H346.573H366.042L358.327 18.1284V45.2472H374.401V11.8322H390.088V1.41016H342.705Z" fill="white"/>
</g>
<defs>
<clipPath id="clip0_778_1303">
<rect width="437.575" height="45.5991" fill="white" transform="translate(0.797607 0.400391)"/>
</clipPath>
</defs>
</svg>
