<svg width="438" height="46" viewBox="0 0 438 46" fill="none" xmlns="http://www.w3.org/2000/svg">
<g clip-path="url(#clip0_685_3824)">
<path d="M42.4188 15.1925C37.1111 12.6569 29.3107 10.2501 24.4542 10.2501C22.0689 10.2501 20.0275 10.9163 20.0275 12.7858C20.0275 19.4258 48.1348 15.4719 48.1348 31.6099C48.1348 41.2799 37.5623 45.5991 25.9369 45.5991C16.8257 45.5991 6.89789 42.9775 -0.0214844 38.4649L6.05983 28.5156C11.4535 32.3621 20.3928 35.349 26.0873 35.349C29.0958 35.349 31.5455 34.5324 31.5455 32.2761C31.5455 25.4857 3.4382 29.6974 3.4382 13.9892C3.45969 5.13581 12.7643 0 25.808 0C33.9522 0 42.3758 1.99845 48.3497 5.11432L42.4188 15.1925Z" fill="white"/>
<path d="M111.613 1.00994H127.643V44.847H111.613V1.00994Z" fill="white"/>
<path d="M136.497 1.00994H152.527V33.9522H175.133V44.847H136.475V1.00994H136.497Z" fill="white"/>
<path d="M178.786 1.00994H194.817V33.9522H217.423V44.847H178.765V1.00994H178.786Z" fill="white"/>
<path d="M221.076 1.00994H238.267L252.643 26.3452L267.019 1.00994H284.21V44.847H270.092L270.049 18.9101L257.865 44.847H247.443L235.173 18.9101V44.847H221.055V1.00994H221.076Z" fill="white"/>
<path d="M310.212 1.00994H326.672L348.934 44.847H331.786L328.628 37.8631H306.967L303.765 44.847H287.24L310.212 1.00994ZM324.351 28.3006L317.969 14.0106L311.394 28.3006H324.351Z" fill="white"/>
<path d="M392.75 1.00994H436.866V11.0882H408.802V17.8571H434.223V27.9139H408.802V34.8117H437.597V44.8685H392.75V1.00994Z" fill="white"/>
<path d="M87.3732 18.7596L106.992 1.00994H88.4476L70.4615 18.5018V1.00994H54.4309V18.5018L70.4615 18.5233L54.4309 31.5669V44.847H70.4615V34.0811L76.3709 28.7519L88.9848 44.847H108.217L87.3732 18.7596Z" fill="white"/>
<path d="M341.907 1.00994V11.432H345.775H365.244L357.53 17.7282V44.847H373.603V11.432H389.29V1.00994H341.907Z" fill="white"/>
</g>
<defs>
<clipPath id="clip0_685_3824">
<rect width="437.575" height="45.5991" fill="white"/>
</clipPath>
</defs>
</svg>
