<svg width="194" height="22" viewBox="0 0 194 22" fill="none" xmlns="http://www.w3.org/2000/svg">
<g clip-path="url(#clip0_778_670)">
<path d="M19.0042 7.64853C16.6641 6.53057 13.2249 5.46944 11.0837 5.46944C10.0321 5.46944 9.13201 5.76315 9.13201 6.58741C9.13201 9.51497 21.5244 7.7717 21.5244 14.8869C21.5244 19.1504 16.8631 21.0547 11.7375 21.0547C7.72034 21.0547 3.34321 19.8988 0.29248 17.9092L2.97371 13.5226C5.35176 15.2185 9.29308 16.5354 11.8038 16.5354C13.1302 16.5354 14.2102 16.1754 14.2102 15.1806C14.2102 12.1867 1.81784 14.0437 1.81784 7.11797C1.82732 3.21456 5.9297 0.950195 11.6806 0.950195C15.2714 0.950195 18.9853 1.83131 21.6192 3.20508L19.0042 7.64853Z" fill="white"/>
<path d="M49.5115 1.39551H56.5793V20.7231H49.5115V1.39551Z" fill="white"/>
<path d="M60.4827 1.39551H67.5506V15.9196H77.5176V20.7231H60.4733V1.39551H60.4827Z" fill="white"/>
<path d="M79.1282 1.39551H86.1961V15.9196H96.1631V20.7231H79.1188V1.39551H79.1282Z" fill="white"/>
<path d="M97.7736 1.39551H105.353L111.691 12.5657L118.03 1.39551H125.609V20.7231H119.385L119.366 9.28761L113.994 20.7231H109.399L103.989 9.28761V20.7231H97.7642V1.39551H97.7736Z" fill="white"/>
<path d="M137.073 1.39551H144.33L154.146 20.7231H146.585L145.193 17.644H135.642L134.231 20.7231H126.945L137.073 1.39551ZM143.307 13.4279L140.493 7.12747L137.594 13.4279H143.307Z" fill="white"/>
<path d="M173.464 1.39551H192.915V5.83896H180.541V8.82337H191.749V13.2573H180.541V16.2986H193.237V20.7326H173.464V1.39551Z" fill="white"/>
<path d="M38.8245 9.22129L47.4746 1.39551H39.2983L31.3683 9.1076V1.39551H24.3004V9.1076L31.3683 9.11707L24.3004 14.868V20.7231H31.3683V15.9765L33.9737 13.6268L39.5351 20.7231H48.0146L38.8245 9.22129Z" fill="white"/>
<path d="M151.048 1.39551V5.99055H152.753H161.337L157.936 8.76652V20.7231H165.022V5.99055H171.939V1.39551H151.048Z" fill="white"/>
</g>
<defs>
<clipPath id="clip0_778_670">
<rect width="192.925" height="20.1045" fill="white" transform="translate(0.302002 0.950195)"/>
</clipPath>
</defs>
</svg>
