<svg width="69" height="68" viewBox="0 0 69 68" fill="none" xmlns="http://www.w3.org/2000/svg">
<g clip-path="url(#clip0_759_2435)">
<path d="M4.50158 34.1411C4.50158 28.5329 6.0647 23.0682 9.02197 18.3378C11.0897 15.0302 13.7768 12.1737 16.9148 9.91134L15.7442 14.9814L19.6059 15.8729L22.2806 4.28797L10.6955 1.61328L9.80406 5.47484L14.7139 6.60834C11.1098 9.18315 8.02824 12.4505 5.66137 16.2367C2.30975 21.598 0.5383 27.7892 0.5383 34.1411C0.5383 43.1748 4.05624 51.6677 10.4439 58.0556C16.8317 64.4432 25.3247 67.9611 34.3583 67.9611V63.9978C26.3833 63.9978 18.8856 60.8922 13.2464 55.253C7.60721 49.6138 4.50158 42.1162 4.50158 34.1411Z" fill="white"/>
<path d="M63.0554 52.0455C66.4068 46.6844 68.1783 40.4932 68.1783 34.1413C68.1783 25.1077 64.6604 16.6147 58.2727 10.2269C51.8849 3.83923 43.3919 0.321289 34.3583 0.321289V4.28457C42.3334 4.28457 49.831 7.3902 55.4702 13.0294C61.1094 18.6686 64.215 26.1662 64.215 34.1413C64.215 39.7495 62.6519 45.2142 59.6946 49.9446C57.6269 53.2522 54.9398 56.1087 51.8018 58.3711L52.9724 53.301L49.1107 52.4095L46.436 63.9944L58.0211 66.669L58.9126 62.8074L54.0027 61.6739C57.6068 59.0991 60.6884 55.8318 63.0554 52.0455Z" fill="white"/>
<path d="M28.7534 59.3633L59.5805 28.5361L39.9632 8.91895L9.13611 39.7461L28.7534 59.3633ZM35.7594 21.53C36.8824 22.6528 38.3752 23.2713 39.9632 23.2713C41.5511 23.2713 43.044 22.6529 44.1669 21.53L45.5682 20.1288L48.3707 22.9314L46.9695 24.3327C44.6515 26.6507 44.6515 30.4221 46.9695 32.7401L48.3706 34.1411L34.3583 48.1535L32.957 46.7522C31.8341 45.6294 30.3412 45.0108 28.7533 45.0108C27.1653 45.0108 25.6725 45.6292 24.5496 46.7522L23.1483 48.1533L20.3457 45.3507L21.747 43.9495C24.065 41.6315 24.065 37.86 21.747 35.542L20.346 34.1411L34.3583 20.1288L35.7594 21.53ZM18.9448 38.3447C19.7175 39.1174 19.7175 40.3746 18.9448 41.1473L17.5435 42.5486L14.7411 39.7461L17.5435 36.9436L18.9448 38.3447ZM25.9509 50.9559L27.3521 49.5546C27.7264 49.1803 28.2241 48.9741 28.7534 48.9741C29.2827 48.9741 29.7803 49.1803 30.1546 49.5546L31.5559 50.9559L28.7534 53.7585L25.9509 50.9559ZM51.173 31.3387L49.7719 29.9375C48.9992 29.1648 48.9992 27.9077 49.7719 27.135L51.1732 25.7337L53.9756 28.5361L51.173 31.3387ZM42.7657 17.3264L41.3645 18.7277C40.9902 19.1019 40.4925 19.3082 39.9632 19.3082C39.4339 19.3082 38.9363 19.1019 38.562 18.7277L37.1607 17.3264L39.9632 14.5238L42.7657 17.3264Z" fill="#B9EA2E"/>
<path d="M34.3583 40.0834C35.8806 40.0834 37.403 39.5039 38.562 38.345C40.8798 36.0272 40.8798 32.2556 38.562 29.9377C36.2443 27.6196 32.4726 27.6199 30.1546 29.9377C27.8369 32.2556 27.8369 36.0272 30.1546 38.345C31.3136 39.504 32.8359 40.0834 34.3583 40.0834ZM32.957 32.7401C33.3313 32.3659 33.8289 32.1597 34.3583 32.1597C34.8877 32.1597 35.3852 32.3659 35.7595 32.7401C36.532 33.5129 36.532 34.7699 35.7595 35.5426C35.3852 35.9168 34.8875 36.1231 34.3582 36.1231C33.8288 36.1231 33.3313 35.9168 32.957 35.5426C32.1844 34.7699 32.1844 33.5127 32.957 32.7401Z" fill="#B9EA2E"/>
</g>
<defs>
<clipPath id="clip0_759_2435">
<rect width="67.64" height="67.64" fill="white" transform="translate(0.5383 0.321289)"/>
</clipPath>
</defs>
</svg>
