<svg width="69" height="68" viewBox="0 0 69 68" fill="none" xmlns="http://www.w3.org/2000/svg">
<g clip-path="url(#clip0_114_10786)">
<path d="M34.7271 67.832C34.5081 67.832 34.2889 67.7985 34.0779 67.7315C26.9822 65.4828 20.9412 61.1695 16.1223 54.9117C12.3285 49.9849 9.29074 43.853 7.09399 36.6863C3.38826 24.5983 3.3457 13.8297 3.3457 13.3773C3.3457 12.293 4.17818 11.3858 5.26922 11.2816C5.4335 11.2658 21.9609 9.58717 33.4767 1.31326C34.2223 0.777229 35.2321 0.77786 35.9777 1.31347C47.4903 9.58717 64.0199 11.2658 64.1854 11.2818C65.2756 11.3871 66.1079 12.2938 66.1079 13.3773C66.1079 13.8297 66.0653 24.5983 62.3598 36.6865C60.1628 43.8532 57.1253 49.9851 53.3315 54.9119C48.5128 61.1697 42.4718 65.483 35.3762 67.7318C35.1651 67.7985 34.9461 67.832 34.7271 67.832ZM7.66281 15.2243C7.83964 18.758 8.5272 26.8961 11.1962 35.5604C15.7512 50.3458 23.6665 59.7448 34.7269 63.5084C45.813 59.7364 53.7375 50.3054 58.2868 35.4643C60.9376 26.8167 61.6178 18.7405 61.792 15.2245C57.0244 14.5363 44.6747 12.2071 34.7267 5.58506C24.7778 12.2065 12.4306 14.5361 7.66281 15.2243Z" fill="white"/>
<path d="M33.5891 44.6244C33.0844 44.6244 32.5932 44.4468 32.2061 44.1192L24.5106 37.6081C23.6175 36.8525 23.5126 35.5235 24.2763 34.6397C25.0398 33.7559 26.3833 33.6519 27.2766 34.4079L33.2614 39.4715L45.1236 24.0774C45.8361 23.1528 47.1712 22.9742 48.106 23.6795C49.0409 24.3844 49.2207 25.7055 48.5082 26.6302L35.2815 43.7953C34.9268 44.2558 34.3963 44.5514 33.8143 44.6127C33.7392 44.6204 33.664 44.6244 33.5891 44.6244Z" fill="#B9EA2E"/>
</g>
<defs>
<clipPath id="clip0_114_10786">
<rect width="67.64" height="66.9204" fill="white" transform="translate(0.907227 0.91156)"/>
</clipPath>
</defs>
</svg>
