<svg width="69" height="67" viewBox="0 0 69 67" fill="none" xmlns="http://www.w3.org/2000/svg">
<g clip-path="url(#clip0_778_1635)">
<path d="M34.7982 66.9957C34.5792 66.9957 34.36 66.9622 34.1489 66.8952C27.0532 64.6465 21.0122 60.3332 16.1933 54.0754C12.3995 49.1486 9.36178 43.0167 7.16503 35.85C3.45931 23.762 3.41675 12.9934 3.41675 12.541C3.41675 11.4567 4.24923 10.5495 5.34026 10.4453C5.50454 10.4295 22.032 8.75087 33.5477 0.476954C34.2934 -0.059075 35.3031 -0.0584433 36.0488 0.477164C47.5613 8.75087 64.0909 10.4295 64.2565 10.4455C65.3466 10.5508 66.1789 11.4575 66.1789 12.541C66.1789 12.9934 66.1364 23.762 62.4308 35.8502C60.2339 43.0169 57.1964 49.1488 53.4025 54.0756C48.5839 60.3334 42.5428 64.6467 35.4472 66.8955C35.2361 66.9622 35.0171 66.9957 34.7982 66.9957ZM7.73385 14.388C7.91069 17.9217 8.59825 26.0598 11.2672 34.724C15.8222 49.5095 23.7376 58.9085 34.7979 62.6721C45.884 58.9001 53.8086 49.469 58.3578 34.628C61.0087 25.9804 61.6888 17.9042 61.8631 14.3882C57.0955 13.7 44.7458 11.3708 34.7977 4.74876C24.8488 11.3702 12.5017 13.6998 7.73385 14.388Z" fill="white"/>
<path d="M33.6603 43.7883C33.1555 43.7883 32.6644 43.6106 32.2773 43.283L24.5818 36.7719C23.6886 36.0163 23.5837 34.6874 24.3475 33.8036C25.111 32.9197 26.4544 32.8157 27.3478 33.5718L33.3326 38.6354L45.1948 23.2413C45.9072 22.3166 47.2424 22.1381 48.1772 22.8434C49.112 23.5483 49.2918 24.8694 48.5794 25.7941L35.3527 42.9592C34.998 43.4197 34.4675 43.7153 33.8854 43.7765C33.8103 43.7843 33.7352 43.7883 33.6603 43.7883Z" fill="#B9EA2E"/>
</g>
<defs>
<clipPath id="clip0_778_1635">
<rect width="67.64" height="66.9204" fill="white" transform="translate(0.977844 0.0751953)"/>
</clipPath>
</defs>
</svg>
