<svg width="173" height="45" viewBox="0 0 173 45" fill="none" xmlns="http://www.w3.org/2000/svg">
<mask id="path-1-outside-1_110_9974" maskUnits="userSpaceOnUse" x="0.734375" y="0.00524902" width="172" height="45" fill="black">
<rect fill="white" x="0.734375" y="0.00524902" width="172" height="45"/>
<path fill-rule="evenodd" clip-rule="evenodd" d="M2.73438 42.9314V21.4825L22.9966 2.00525H170.146V23.0584L149.472 42.9314H2.73438Z"/>
</mask>
<path fill-rule="evenodd" clip-rule="evenodd" d="M2.73438 42.9314V21.4825L22.9966 2.00525H170.146V23.0584L149.472 42.9314H2.73438Z" fill="url(#paint0_linear_110_9974)"/>
<path d="M2.73438 21.4825L1.34837 20.0406L0.734375 20.6308V21.4825H2.73438ZM2.73438 42.9314H0.734375V44.9314H2.73438V42.9314ZM22.9966 2.00525V0.00524902H22.1912L21.6106 0.563382L22.9966 2.00525ZM170.146 2.00525H172.146V0.00524902H170.146V2.00525ZM170.146 23.0584L171.532 24.5002L172.146 23.91V23.0584H170.146ZM149.472 42.9314V44.9314H150.277L150.858 44.3732L149.472 42.9314ZM0.734375 21.4825V42.9314H4.73438V21.4825H0.734375ZM21.6106 0.563382L1.34837 20.0406L4.12038 22.9244L24.3826 3.44712L21.6106 0.563382ZM170.146 0.00524902H22.9966V4.00525H170.146V0.00524902ZM172.146 23.0584V2.00525H168.146V23.0584H172.146ZM150.858 44.3732L171.532 24.5002L168.76 21.6165L148.086 41.4895L150.858 44.3732ZM2.73438 44.9314H149.472V40.9314H2.73438V44.9314Z" fill="url(#paint1_linear_110_9974)" mask="url(#path-1-outside-1_110_9974)"/>
<defs>
<linearGradient id="paint0_linear_110_9974" x1="2.73438" y1="2.00525" x2="133.014" y2="94.9686" gradientUnits="userSpaceOnUse">
<stop stop-color="#B3B3B3"/>
<stop offset="1" stop-color="white" stop-opacity="0"/>
</linearGradient>
<linearGradient id="paint1_linear_110_9974" x1="2.73438" y1="2.00525" x2="133.014" y2="94.9686" gradientUnits="userSpaceOnUse">
<stop stop-color="white"/>
<stop offset="1" stop-color="white" stop-opacity="0"/>
</linearGradient>
</defs>
</svg>
