<svg width="172" height="45" viewBox="0 0 172 45" fill="none" xmlns="http://www.w3.org/2000/svg">
<mask id="path-1-outside-1_110_9928" maskUnits="userSpaceOnUse" x="0.5" y="0.00524902" width="172" height="45" fill="black">
<rect fill="white" x="0.5" y="0.00524902" width="172" height="45"/>
<path fill-rule="evenodd" clip-rule="evenodd" d="M2.5 42.9314V21.4825L22.7622 2.00525H169.912V23.0584L149.238 42.9314H2.5Z"/>
</mask>
<path fill-rule="evenodd" clip-rule="evenodd" d="M2.5 42.9314V21.4825L22.7622 2.00525H169.912V23.0584L149.238 42.9314H2.5Z" fill="url(#paint0_linear_110_9928)"/>
<path d="M2.5 21.4825L1.11399 20.0406L0.5 20.6308V21.4825H2.5ZM2.5 42.9314H0.5V44.9314H2.5V42.9314ZM22.7622 2.00525V0.00524902H21.9568L21.3762 0.563382L22.7622 2.00525ZM169.912 2.00525H171.912V0.00524902H169.912V2.00525ZM169.912 23.0584L171.298 24.5002L171.912 23.91V23.0584H169.912ZM149.238 42.9314V44.9314H150.043L150.624 44.3732L149.238 42.9314ZM0.5 21.4825V42.9314H4.5V21.4825H0.5ZM21.3762 0.563382L1.11399 20.0406L3.88601 22.9244L24.1482 3.44712L21.3762 0.563382ZM169.912 0.00524902H22.7622V4.00525H169.912V0.00524902ZM171.912 23.0584V2.00525H167.912V23.0584H171.912ZM150.624 44.3732L171.298 24.5002L168.526 21.6165L147.852 41.4895L150.624 44.3732ZM2.5 44.9314H149.238V40.9314H2.5V44.9314Z" fill="url(#paint1_linear_110_9928)" mask="url(#path-1-outside-1_110_9928)"/>
<defs>
<linearGradient id="paint0_linear_110_9928" x1="2.5" y1="22.4683" x2="169.912" y2="22.4683" gradientUnits="userSpaceOnUse">
<stop stop-color="#A575FF"/>
<stop offset="1" stop-color="#7126FF"/>
</linearGradient>
<linearGradient id="paint1_linear_110_9928" x1="2.5" y1="2.00525" x2="165.843" y2="55.3825" gradientUnits="userSpaceOnUse">
<stop stop-color="white"/>
<stop offset="1" stop-color="#7228FF"/>
</linearGradient>
</defs>
</svg>
