<svg width="550" height="317" viewBox="0 0 550 317" fill="none" xmlns="http://www.w3.org/2000/svg">
<g filter="url(#filter0_b_759_2410)">
<mask id="path-1-inside-1_759_2410" fill="white">
<path fill-rule="evenodd" clip-rule="evenodd" d="M0.797607 316.338V52.0606L53.7703 0.275391H549.798V261.33L493.528 316.338H0.797607Z"/>
</mask>
<path fill-rule="evenodd" clip-rule="evenodd" d="M0.797607 316.338V52.0606L53.7703 0.275391H549.798V261.33L493.528 316.338H0.797607Z" fill="white" fill-opacity="0.05"/>
<path d="M0.797607 52.0606L0.0985607 51.3456L-0.202393 51.6398V52.0606H0.797607ZM0.797607 316.338H-0.202393V317.338H0.797607V316.338ZM53.7703 0.275391V-0.724609H53.3627L53.0713 -0.439685L53.7703 0.275391ZM549.798 0.275391H550.798V-0.724609H549.798V0.275391ZM549.798 261.33L550.497 262.045L550.798 261.75V261.33H549.798ZM493.528 316.338V317.338H493.936L494.227 317.053L493.528 316.338ZM-0.202393 52.0606V316.338H1.79761V52.0606H-0.202393ZM53.0713 -0.439685L0.0985607 51.3456L1.49665 52.7757L54.4693 0.990467L53.0713 -0.439685ZM549.798 -0.724609H53.7703V1.27539H549.798V-0.724609ZM550.798 261.33V0.275391H548.798V261.33H550.798ZM494.227 317.053L550.497 262.045L549.099 260.615L492.829 315.623L494.227 317.053ZM0.797607 317.338H493.528V315.338H0.797607V317.338Z" fill="url(#paint0_linear_759_2410)" mask="url(#path-1-inside-1_759_2410)"/>
<path d="M0.797607 52.0606L0.0985607 51.3456L-0.202393 51.6398V52.0606H0.797607ZM0.797607 316.338H-0.202393V317.338H0.797607V316.338ZM53.7703 0.275391V-0.724609H53.3627L53.0713 -0.439685L53.7703 0.275391ZM549.798 0.275391H550.798V-0.724609H549.798V0.275391ZM549.798 261.33L550.497 262.045L550.798 261.75V261.33H549.798ZM493.528 316.338V317.338H493.936L494.227 317.053L493.528 316.338ZM-0.202393 52.0606V316.338H1.79761V52.0606H-0.202393ZM53.0713 -0.439685L0.0985607 51.3456L1.49665 52.7757L54.4693 0.990467L53.0713 -0.439685ZM549.798 -0.724609H53.7703V1.27539H549.798V-0.724609ZM550.798 261.33V0.275391H548.798V261.33H550.798ZM494.227 317.053L550.497 262.045L549.099 260.615L492.829 315.623L494.227 317.053ZM0.797607 317.338H493.528V315.338H0.797607V317.338Z" fill="url(#paint1_linear_759_2410)" mask="url(#path-1-inside-1_759_2410)"/>
</g>
<defs>
<filter id="filter0_b_759_2410" x="-19.2024" y="-19.7246" width="589" height="356.062" filterUnits="userSpaceOnUse" color-interpolation-filters="sRGB">
<feFlood flood-opacity="0" result="BackgroundImageFix"/>
<feGaussianBlur in="BackgroundImageFix" stdDeviation="10"/>
<feComposite in2="SourceAlpha" operator="in" result="effect1_backgroundBlur_759_2410"/>
<feBlend mode="normal" in="SourceGraphic" in2="effect1_backgroundBlur_759_2410" result="shape"/>
</filter>
<linearGradient id="paint0_linear_759_2410" x1="299.372" y1="0.275398" x2="304.671" y2="221.735" gradientUnits="userSpaceOnUse">
<stop stop-color="white" stop-opacity="0.5"/>
<stop offset="0.44" stop-color="white" stop-opacity="0"/>
</linearGradient>
<linearGradient id="paint1_linear_759_2410" x1="0.797618" y1="285.065" x2="-3.1739" y2="72.7678" gradientUnits="userSpaceOnUse">
<stop stop-color="white" stop-opacity="0.5"/>
<stop offset="0.44" stop-color="white" stop-opacity="0"/>
</linearGradient>
</defs>
</svg>
