<svg width="32" height="33" viewBox="0 0 32 33" fill="none" xmlns="http://www.w3.org/2000/svg">
<path fill-rule="evenodd" clip-rule="evenodd" d="M32 0.0991211H0V32.0991H32V0.0991211ZM19.0973 7.09912C20.6893 7.37485 22.212 7.85909 23.6361 8.52539C26.1261 12.2439 27.3633 16.4378 26.9065 21.275C25.0014 22.6995 23.1533 23.5637 21.3364 24.1293C20.8865 23.5125 20.4886 22.855 20.1442 22.1658C20.8 21.9165 21.4299 21.609 22.0251 21.2503C21.8694 21.1336 21.7154 21.0117 21.5648 20.8862C17.9882 22.5793 14.055 22.5793 10.4351 20.8862C10.2863 21.0117 10.1323 21.1336 9.97482 21.2503C10.5683 21.6073 11.1964 21.9148 11.8522 22.164C11.5079 22.855 11.1082 23.5107 10.66 24.1275C8.84487 23.562 6.99856 22.6977 5.09342 21.275C4.70409 17.1023 5.48276 12.8695 8.35518 8.52892C9.77928 7.86087 11.3037 7.37485 12.8974 7.09912C13.0947 7.4526 13.3283 7.92803 13.4857 8.30624C15.1469 8.05174 16.8236 8.05174 18.5159 8.30624C18.6734 7.92803 18.9018 7.4526 19.0973 7.09912ZM10.3676 16.459C10.3676 17.6944 11.2587 18.7088 12.3454 18.7088C13.4511 18.7088 14.325 17.6944 14.3232 16.459C14.3423 15.2218 13.4511 14.2074 12.3454 14.2074C11.2397 14.2074 10.3676 15.2236 10.3676 16.459ZM17.6767 16.459C17.6767 17.6944 18.5678 18.7088 19.6545 18.7088C20.7602 18.7088 21.6323 17.6944 21.6323 16.459C21.6514 15.2218 20.7602 14.2074 19.6545 14.2074C18.5488 14.2074 17.6767 15.2236 17.6767 16.459Z" fill="white"/>
</svg>
