<svg width="33" height="33" viewBox="0 0 33 33" fill="none" xmlns="http://www.w3.org/2000/svg">
<path fill-rule="evenodd" clip-rule="evenodd" d="M32.7976 0.5H0.797607V32.5H32.7976V0.5ZM19.8949 7.5C21.4869 7.77573 23.0096 8.25997 24.4337 8.92627C26.9237 12.6448 28.1609 16.8387 27.7041 21.6759C25.799 23.1004 23.9509 23.9646 22.134 24.5301C21.6841 23.9134 21.2862 23.2559 20.9418 22.5666C21.5976 22.3174 22.2275 22.0099 22.8227 21.6512C22.667 21.5345 22.513 21.4125 22.3624 21.2871C18.7858 22.9802 14.8526 22.9802 11.2327 21.2871C11.0839 21.4125 10.9299 21.5345 10.7724 21.6512C11.3659 22.0082 11.994 22.3157 12.6499 22.5649C12.3055 23.2559 11.9058 23.9116 11.4576 24.5284C9.64248 23.9628 7.79617 23.0986 5.89103 21.6759C5.5017 17.5032 6.28036 13.2704 9.15278 8.9298C10.5769 8.26175 12.1013 7.77573 13.695 7.5C13.8923 7.85348 14.1259 8.32891 14.2833 8.70712C15.9445 8.45262 17.6212 8.45262 19.3135 8.70712C19.471 8.32891 19.6994 7.85348 19.8949 7.5ZM11.1652 16.8599C11.1652 18.0952 12.0564 19.1097 13.143 19.1097C14.2487 19.1097 15.1226 18.0952 15.1208 16.8599C15.1399 15.6227 14.2487 14.6083 13.143 14.6083C12.0373 14.6083 11.1652 15.6245 11.1652 16.8599ZM18.4743 16.8599C18.4743 18.0952 19.3655 19.1097 20.4521 19.1097C21.5578 19.1097 22.4299 18.0952 22.4299 16.8599C22.449 15.6227 21.5578 14.6083 20.4521 14.6083C19.3464 14.6083 18.4743 15.6245 18.4743 16.8599Z" fill="white"/>
</svg>
