<svg width="173" height="45" viewBox="0 0 173 45" fill="none" xmlns="http://www.w3.org/2000/svg">
<mask id="path-1-outside-1_110_9936" maskUnits="userSpaceOnUse" x="0.912109" y="0.00524902" width="172" height="45" fill="black">
<rect fill="white" x="0.912109" y="0.00524902" width="172" height="45"/>
<path fill-rule="evenodd" clip-rule="evenodd" d="M2.91211 42.9314V21.4825L23.1743 2.00525H170.324V23.0584L149.65 42.9314H2.91211Z"/>
</mask>
<path fill-rule="evenodd" clip-rule="evenodd" d="M2.91211 42.9314V21.4825L23.1743 2.00525H170.324V23.0584L149.65 42.9314H2.91211Z" fill="url(#paint0_linear_110_9936)"/>
<path d="M2.91211 21.4825L1.5261 20.0406L0.912109 20.6308V21.4825H2.91211ZM2.91211 42.9314H0.912109V44.9314H2.91211V42.9314ZM23.1743 2.00525V0.00524902H22.3689L21.7883 0.563382L23.1743 2.00525ZM170.324 2.00525H172.324V0.00524902H170.324V2.00525ZM170.324 23.0584L171.71 24.5002L172.324 23.91V23.0584H170.324ZM149.65 42.9314V44.9314H150.455L151.036 44.3732L149.65 42.9314ZM0.912109 21.4825V42.9314H4.91211V21.4825H0.912109ZM21.7883 0.563382L1.5261 20.0406L4.29812 22.9244L24.5603 3.44712L21.7883 0.563382ZM170.324 0.00524902H23.1743V4.00525H170.324V0.00524902ZM172.324 23.0584V2.00525H168.324V23.0584H172.324ZM151.036 44.3732L171.71 24.5002L168.938 21.6165L148.264 41.4895L151.036 44.3732ZM2.91211 44.9314H149.65V40.9314H2.91211V44.9314Z" fill="url(#paint1_linear_110_9936)" mask="url(#path-1-outside-1_110_9936)"/>
<defs>
<linearGradient id="paint0_linear_110_9936" x1="2.91211" y1="22.4683" x2="170.324" y2="22.4683" gradientUnits="userSpaceOnUse">
<stop stop-color="#A575FF"/>
<stop offset="1" stop-color="#7126FF"/>
</linearGradient>
<linearGradient id="paint1_linear_110_9936" x1="2.91211" y1="2.00525" x2="166.255" y2="55.3825" gradientUnits="userSpaceOnUse">
<stop stop-color="#7228FF"/>
<stop offset="1" stop-color="white"/>
</linearGradient>
</defs>
</svg>
