<svg width="1571" height="244" viewBox="0 0 1571 244" fill="none" xmlns="http://www.w3.org/2000/svg">
<g filter="url(#filter0_b_759_2098)">
<mask id="path-1-outside-1_759_2098" maskUnits="userSpaceOnUse" x="-0.438721" y="-0.724609" width="1572" height="245" fill="black">
<rect fill="white" x="-0.438721" y="-0.724609" width="1572" height="245"/>
<path d="M2.56128 2.27539H1568.78V241.694H2.56128V2.27539Z"/>
</mask>
<path d="M2.56128 2.27539H1568.78V241.694H2.56128V2.27539Z" fill="white" fill-opacity="0.07"/>
<path d="M2.56128 2.27539V0.271884H0.557773V2.27539H2.56128ZM1568.78 2.27539H1570.78V0.271884H1568.78V2.27539ZM1568.78 241.694V243.698H1570.78V241.694H1568.78ZM2.56128 241.694H0.557773V243.698H2.56128V241.694ZM2.56128 4.2789H1568.78V0.271884H2.56128V4.2789ZM1566.77 2.27539V241.694H1570.78V2.27539H1566.77ZM1568.78 239.691H2.56128V243.698H1568.78V239.691ZM4.56479 241.694V2.27539H0.557773V241.694H4.56479Z" fill="url(#paint0_linear_759_2098)" mask="url(#path-1-outside-1_759_2098)"/>
<path d="M2.56128 2.27539V0.271884H0.557773V2.27539H2.56128ZM1568.78 2.27539H1570.78V0.271884H1568.78V2.27539ZM1568.78 241.694V243.698H1570.78V241.694H1568.78ZM2.56128 241.694H0.557773V243.698H2.56128V241.694ZM2.56128 4.2789H1568.78V0.271884H2.56128V4.2789ZM1566.77 2.27539V241.694H1570.78V2.27539H1566.77ZM1568.78 239.691H2.56128V243.698H1568.78V239.691ZM4.56479 241.694V2.27539H0.557773V241.694H4.56479Z" fill="url(#paint1_linear_759_2098)" mask="url(#path-1-outside-1_759_2098)"/>
</g>
<defs>
<filter id="filter0_b_759_2098" x="-16.0547" y="-16.3405" width="1603.45" height="276.651" filterUnits="userSpaceOnUse" color-interpolation-filters="sRGB">
<feFlood flood-opacity="0" result="BackgroundImageFix"/>
<feGaussianBlur in="BackgroundImageFix" stdDeviation="8.30623"/>
<feComposite in2="SourceAlpha" operator="in" result="effect1_backgroundBlur_759_2098"/>
<feBlend mode="normal" in="SourceGraphic" in2="effect1_backgroundBlur_759_2098" result="shape"/>
</filter>
<linearGradient id="paint0_linear_759_2098" x1="588.904" y1="2.27541" x2="388.429" y2="33.3401" gradientUnits="userSpaceOnUse">
<stop offset="0.015" stop-color="white" stop-opacity="0"/>
<stop offset="1" stop-color="white"/>
</linearGradient>
<linearGradient id="paint1_linear_759_2098" x1="1154.26" y1="2.27541" x2="977.628" y2="58.1179" gradientUnits="userSpaceOnUse">
<stop stop-color="white"/>
<stop offset="0.985" stop-color="white" stop-opacity="0"/>
</linearGradient>
</defs>
</svg>
