<svg width="172" height="45" viewBox="0 0 172 45" fill="none" xmlns="http://www.w3.org/2000/svg">
<mask id="path-1-outside-1_110_9952" maskUnits="userSpaceOnUse" x="0.323242" y="0.00524902" width="172" height="45" fill="black">
<rect fill="white" x="0.323242" y="0.00524902" width="172" height="45"/>
<path fill-rule="evenodd" clip-rule="evenodd" d="M2.32324 42.9314V21.4825L22.5855 2.00525H169.735V23.0584L149.061 42.9314H2.32324Z"/>
</mask>
<path fill-rule="evenodd" clip-rule="evenodd" d="M2.32324 42.9314V21.4825L22.5855 2.00525H169.735V23.0584L149.061 42.9314H2.32324Z" fill="url(#paint0_linear_110_9952)"/>
<path d="M2.32324 21.4825L0.937233 20.0406L0.323242 20.6308V21.4825H2.32324ZM2.32324 42.9314H0.323242V44.9314H2.32324V42.9314ZM22.5855 2.00525V0.00524902H21.7801L21.1994 0.563382L22.5855 2.00525ZM169.735 2.00525H171.735V0.00524902H169.735V2.00525ZM169.735 23.0584L171.121 24.5002L171.735 23.91V23.0584H169.735ZM149.061 42.9314V44.9314H149.866L150.447 44.3732L149.061 42.9314ZM0.323242 21.4825V42.9314H4.32324V21.4825H0.323242ZM21.1994 0.563382L0.937233 20.0406L3.70925 22.9244L23.9715 3.44712L21.1994 0.563382ZM169.735 0.00524902H22.5855V4.00525H169.735V0.00524902ZM171.735 23.0584V2.00525H167.735V23.0584H171.735ZM150.447 44.3732L171.121 24.5002L168.349 21.6165L147.675 41.4895L150.447 44.3732ZM2.32324 44.9314H149.061V40.9314H2.32324V44.9314Z" fill="url(#paint1_linear_110_9952)" mask="url(#path-1-outside-1_110_9952)"/>
<defs>
<linearGradient id="paint0_linear_110_9952" x1="2.32324" y1="22.4683" x2="169.735" y2="22.4683" gradientUnits="userSpaceOnUse">
<stop stop-color="#A474FF"/>
<stop offset="1" stop-color="#3F1197"/>
</linearGradient>
<linearGradient id="paint1_linear_110_9952" x1="2.32324" y1="2.00525" x2="165.666" y2="55.3825" gradientUnits="userSpaceOnUse">
<stop stop-color="#7228FF"/>
<stop offset="1" stop-color="white"/>
</linearGradient>
</defs>
</svg>
