<svg width="550" height="317" viewBox="0 0 550 317" fill="none" xmlns="http://www.w3.org/2000/svg">
<g filter="url(#filter0_b_759_2465)">
<mask id="path-1-inside-1_759_2465" fill="white">
<path fill-rule="evenodd" clip-rule="evenodd" d="M0.797607 316.4V52.1231L53.7703 0.337891H549.798V261.392L493.528 316.4H0.797607Z"/>
</mask>
<path fill-rule="evenodd" clip-rule="evenodd" d="M0.797607 316.4V52.1231L53.7703 0.337891H549.798V261.392L493.528 316.4H0.797607Z" fill="white" fill-opacity="0.05"/>
<path d="M0.797607 52.1231L0.0985607 51.4081L-0.202393 51.7023V52.1231H0.797607ZM0.797607 316.4H-0.202393V317.4H0.797607V316.4ZM53.7703 0.337891V-0.662109H53.3627L53.0713 -0.377185L53.7703 0.337891ZM549.798 0.337891H550.798V-0.662109H549.798V0.337891ZM549.798 261.392L550.497 262.107L550.798 261.813V261.392H549.798ZM493.528 316.4V317.4H493.936L494.227 317.115L493.528 316.4ZM-0.202393 52.1231V316.4H1.79761V52.1231H-0.202393ZM53.0713 -0.377185L0.0985607 51.4081L1.49665 52.8382L54.4693 1.05297L53.0713 -0.377185ZM549.798 -0.662109H53.7703V1.33789H549.798V-0.662109ZM550.798 261.392V0.337891H548.798V261.392H550.798ZM494.227 317.115L550.497 262.107L549.099 260.677L492.829 315.685L494.227 317.115ZM0.797607 317.4H493.528V315.4H0.797607V317.4Z" fill="url(#paint0_linear_759_2465)" mask="url(#path-1-inside-1_759_2465)"/>
<path d="M0.797607 52.1231L0.0985607 51.4081L-0.202393 51.7023V52.1231H0.797607ZM0.797607 316.4H-0.202393V317.4H0.797607V316.4ZM53.7703 0.337891V-0.662109H53.3627L53.0713 -0.377185L53.7703 0.337891ZM549.798 0.337891H550.798V-0.662109H549.798V0.337891ZM549.798 261.392L550.497 262.107L550.798 261.813V261.392H549.798ZM493.528 316.4V317.4H493.936L494.227 317.115L493.528 316.4ZM-0.202393 52.1231V316.4H1.79761V52.1231H-0.202393ZM53.0713 -0.377185L0.0985607 51.4081L1.49665 52.8382L54.4693 1.05297L53.0713 -0.377185ZM549.798 -0.662109H53.7703V1.33789H549.798V-0.662109ZM550.798 261.392V0.337891H548.798V261.392H550.798ZM494.227 317.115L550.497 262.107L549.099 260.677L492.829 315.685L494.227 317.115ZM0.797607 317.4H493.528V315.4H0.797607V317.4Z" fill="url(#paint1_linear_759_2465)" mask="url(#path-1-inside-1_759_2465)"/>
</g>
<defs>
<filter id="filter0_b_759_2465" x="-19.2024" y="-19.6621" width="589" height="356.062" filterUnits="userSpaceOnUse" color-interpolation-filters="sRGB">
<feFlood flood-opacity="0" result="BackgroundImageFix"/>
<feGaussianBlur in="BackgroundImageFix" stdDeviation="10"/>
<feComposite in2="SourceAlpha" operator="in" result="effect1_backgroundBlur_759_2465"/>
<feBlend mode="normal" in="SourceGraphic" in2="effect1_backgroundBlur_759_2465" result="shape"/>
</filter>
<linearGradient id="paint0_linear_759_2465" x1="299.372" y1="0.337898" x2="304.671" y2="221.797" gradientUnits="userSpaceOnUse">
<stop stop-color="white" stop-opacity="0.5"/>
<stop offset="0.44" stop-color="white" stop-opacity="0"/>
</linearGradient>
<linearGradient id="paint1_linear_759_2465" x1="0.797618" y1="285.127" x2="-3.1739" y2="72.8303" gradientUnits="userSpaceOnUse">
<stop stop-color="white" stop-opacity="0.5"/>
<stop offset="0.44" stop-color="white" stop-opacity="0"/>
</linearGradient>
</defs>
</svg>
