<svg width="551" height="317" viewBox="0 0 551 317" fill="none" xmlns="http://www.w3.org/2000/svg">
<g filter="url(#filter0_b_759_2428)">
<mask id="path-1-inside-1_759_2428" fill="white">
<path fill-rule="evenodd" clip-rule="evenodd" d="M0.797607 316.066V51.7891L53.8668 0.00390625H550.798V261.058L494.426 316.066H0.797607Z"/>
</mask>
<path fill-rule="evenodd" clip-rule="evenodd" d="M0.797607 316.066V51.7891L53.8668 0.00390625H550.798V261.058L494.426 316.066H0.797607Z" fill="white" fill-opacity="0.05"/>
<path d="M0.797607 51.7891L0.0992115 51.0734L-0.202393 51.3677V51.7891H0.797607ZM0.797607 316.066H-0.202393V317.066H0.797607V316.066ZM53.8668 0.00390625V-0.996094H53.4597L53.1684 -0.711805L53.8668 0.00390625ZM550.798 0.00390625H551.798V-0.996094H550.798V0.00390625ZM550.798 261.058L551.496 261.774L551.798 261.48V261.058H550.798ZM494.426 316.066V317.066H494.833L495.124 316.782L494.426 316.066ZM-0.202393 51.7891V316.066H1.79761V51.7891H-0.202393ZM53.1684 -0.711805L0.0992115 51.0734L1.496 52.5049L54.5652 0.719618L53.1684 -0.711805ZM550.798 -0.996094H53.8668V1.00391H550.798V-0.996094ZM551.798 261.058V0.00390625H549.798V261.058H551.798ZM495.124 316.782L551.496 261.774L550.099 260.342L493.727 315.351L495.124 316.782ZM0.797607 317.066H494.426V315.066H0.797607V317.066Z" fill="url(#paint0_linear_759_2428)" mask="url(#path-1-inside-1_759_2428)"/>
<path d="M0.797607 51.7891L0.0992115 51.0734L-0.202393 51.3677V51.7891H0.797607ZM0.797607 316.066H-0.202393V317.066H0.797607V316.066ZM53.8668 0.00390625V-0.996094H53.4597L53.1684 -0.711805L53.8668 0.00390625ZM550.798 0.00390625H551.798V-0.996094H550.798V0.00390625ZM550.798 261.058L551.496 261.774L551.798 261.48V261.058H550.798ZM494.426 316.066V317.066H494.833L495.124 316.782L494.426 316.066ZM-0.202393 51.7891V316.066H1.79761V51.7891H-0.202393ZM53.1684 -0.711805L0.0992115 51.0734L1.496 52.5049L54.5652 0.719618L53.1684 -0.711805ZM550.798 -0.996094H53.8668V1.00391H550.798V-0.996094ZM551.798 261.058V0.00390625H549.798V261.058H551.798ZM495.124 316.782L551.496 261.774L550.099 260.342L493.727 315.351L495.124 316.782ZM0.797607 317.066H494.426V315.066H0.797607V317.066Z" fill="url(#paint1_linear_759_2428)" mask="url(#path-1-inside-1_759_2428)"/>
</g>
<defs>
<filter id="filter0_b_759_2428" x="-19.2024" y="-19.9961" width="590" height="356.062" filterUnits="userSpaceOnUse" color-interpolation-filters="sRGB">
<feFlood flood-opacity="0" result="BackgroundImageFix"/>
<feGaussianBlur in="BackgroundImageFix" stdDeviation="10"/>
<feComposite in2="SourceAlpha" operator="in" result="effect1_backgroundBlur_759_2428"/>
<feBlend mode="normal" in="SourceGraphic" in2="effect1_backgroundBlur_759_2428" result="shape"/>
</filter>
<linearGradient id="paint0_linear_759_2428" x1="299.916" y1="0.00391346" x2="305.205" y2="221.464" gradientUnits="userSpaceOnUse">
<stop stop-color="white" stop-opacity="0.5"/>
<stop offset="0.44" stop-color="white" stop-opacity="0"/>
</linearGradient>
<linearGradient id="paint1_linear_759_2428" x1="0.797618" y1="284.793" x2="-3.16669" y2="72.496" gradientUnits="userSpaceOnUse">
<stop stop-color="white" stop-opacity="0.5"/>
<stop offset="0.44" stop-color="white" stop-opacity="0"/>
</linearGradient>
</defs>
</svg>
