<svg width="69" height="68" viewBox="0 0 69 68" fill="none" xmlns="http://www.w3.org/2000/svg">
<g clip-path="url(#clip0_759_2472)">
<path d="M62.1727 28.1505H60.191V26.1688C60.191 11.9276 48.5371 0.275391 34.2976 0.275391C20.0563 0.275391 8.40416 11.9293 8.40416 26.1688V28.1505H6.42252C3.14449 28.1505 0.4776 30.8174 0.4776 34.0954V45.9852C0.4776 49.2633 3.14449 51.9302 6.42252 51.9302H16.3307V28.1505H12.3674V26.1688C12.3674 14.0765 22.2052 4.23867 34.2976 4.23867C46.39 4.23867 56.2278 14.0765 56.2278 26.1688V28.1505H52.2645V51.9302H56.2278V58.0072C56.2278 59.0999 55.3388 59.9888 54.2461 59.9888H43.865C43.0469 57.6825 40.8443 56.0255 38.2609 56.0255H34.2976C31.0196 56.0255 28.3527 58.6924 28.3527 61.9705C28.3527 65.2485 31.0196 67.9154 34.2976 67.9154H38.2609C40.8443 67.9154 43.0469 66.2585 43.865 63.9521H54.2461C57.5241 63.9521 60.191 61.2852 60.191 58.0072V51.9302H62.1727C65.4507 51.9302 68.1176 49.2633 68.1176 45.9852V34.0954C68.1176 30.8174 65.4507 28.1505 62.1727 28.1505ZM12.3674 47.9669H6.42252C5.32985 47.9669 4.44088 47.0779 4.44088 45.9852V34.0954C4.44088 33.0027 5.32985 32.1138 6.42252 32.1138H12.3674V47.9669ZM38.2609 63.9521H34.2976C33.2049 63.9521 32.316 63.0631 32.316 61.9705C32.316 60.8778 33.2049 59.9888 34.2976 59.9888H38.2609C39.3536 59.9888 40.2425 60.8778 40.2425 61.9705C40.2425 63.0631 39.3536 63.9521 38.2609 63.9521ZM64.1543 45.9852C64.1543 47.0779 63.2654 47.9669 62.1727 47.9669H56.2278V32.1138H62.1727C63.2654 32.1138 64.1543 33.0027 64.1543 34.0954V45.9852Z" fill="white"/>
<path d="M34.2976 50.8847L39.2734 44.0039H48.3012V24.1875H20.294V44.0039H29.3218L34.2976 50.8847ZM24.2573 28.1508H44.3379V40.0406H37.2484L34.2976 44.1212L31.3468 40.0406H24.2573V28.1508Z" fill="#B9EA2E"/>
<path d="M28.3527 32.1133H40.2425V36.0766H28.3527V32.1133Z" fill="#B9EA2E"/>
</g>
<defs>
<clipPath id="clip0_759_2472">
<rect width="67.64" height="67.64" fill="white" transform="translate(0.4776 0.275391)"/>
</clipPath>
</defs>
</svg>
