<svg width="168" height="57" viewBox="0 0 168 57" fill="none" xmlns="http://www.w3.org/2000/svg">
<g clip-path="url(#clip0_778_1390)">
<g filter="url(#filter0_d_778_1390)">
<path d="M143.374 29.0893L142.991 30.0675L142.611 29.0893H142.221V30.4693H142.473V29.3929L142.891 30.4693H143.081L143.499 29.3929V30.4693H143.78V29.0893H143.374ZM140.799 29.0893V29.307H141.23V30.4693H141.501V29.307H141.928V29.0893H140.799ZM49.1342 29.0923H44.7227L45.658 31.3157L37.9855 48.1455H43.1639L43.8373 46.5294L51.3197 45.131L52.6384 48.1455H57.8137L49.1342 29.0923ZM45.736 42.0061H45.711L47.7874 37.0227L49.658 41.2731L45.736 42.0061ZM78.094 5.61086V24.6641H73.1401V14.9673L68.8003 20.0365H68.4387L64.1239 14.9673V24.6641H59.1356V5.61086H62.0444L68.6444 13.805L75.391 5.61086H78.094ZM161.239 5.61086L159.206 10.0729H152.914V28.1969L147.833 29.0893V10.0759H141.304L142.221 12.3023V24.6641H137.148V16.8165L130.62 18.0431V24.6641H125.557V5.61086H130.62V13.6793L137.148 12.4526V5.61086H161.239ZM93.676 29.0893V33.5543H87.899V48.1455H82.811V33.5543H77.9693L75.9335 29.0893H93.676ZM85.5359 10.0759V13.0751H93.1585L91.1726 17.4329H85.5359V24.6641H80.4915V5.61086H93.6698V10.0759H85.5359ZM49.2246 5.61086H44.8131L45.7484 7.83726L38.0666 24.6641H43.2481L43.9215 23.0357L51.4039 21.6373L52.7444 24.6641H57.9197L49.2246 5.61086ZM45.8295 18.5246H45.8046L47.8809 13.5443L49.7359 17.7917L45.8295 18.5246ZM29.3621 10.0759V13.0751H36.9878L34.9739 17.4329H29.3621V20.1929H37.5054L35.454 24.6641H24.3084V12.0693L25.2187 10.0759H18.7621V29.0893L13.6741 28.1693V10.0759H7.39202L5.3562 5.61086H37.4898V10.0759H29.3621ZM122.929 15.5622V24.6641L118.617 23.9189C117.002 24.8205 115.39 25.1823 113.155 25.1823C107.465 25.1823 103.431 21.1343 103.431 15.369C103.431 9.60366 107.465 5.55566 113.155 5.55566C118.025 5.55566 121.239 8.17153 122.411 12.1582H117.189C116.759 11.5554 116.182 11.0681 115.511 10.7408C114.84 10.4135 114.097 10.2566 113.348 10.2845C110.502 10.2845 108.597 12.2931 108.597 15.3659C108.597 18.4387 110.502 20.4443 113.348 20.4443C115.447 20.4443 117.959 19.2177 117.959 15.553H122.932L122.929 15.5622ZM76.2889 41.3621C75.416 45.6554 72.1736 48.4798 66.83 48.443C61.1278 48.4031 57.0904 44.3889 57.0904 38.6297C57.0904 32.8705 61.1278 28.8163 66.83 28.8163C71.7527 28.8163 74.9889 31.4843 76.1361 35.5385H70.9421C70.1222 34.2842 68.7442 33.5513 67.0233 33.5513C64.1706 33.5513 62.2626 35.5661 62.2626 38.6419C62.2626 41.7178 64.1706 43.7326 67.0233 43.7326C68.925 43.7326 70.3966 42.8433 71.1729 41.3866L76.2889 41.3621ZM42.0509 29.0893L40.0182 33.5543H35.1734V48.1455H30.0854V33.5543H24.3084V29.0893H42.0509ZM133.46 36.4125C139.072 37.7925 141.663 38.8075 141.663 42.3495C141.663 45.8915 139.237 48.443 133.043 48.443C126.789 48.443 124.382 45.2782 124.382 41.3621H129.283C129.283 43.2235 130.53 44.3214 133.043 44.3214C134.972 44.3214 136.35 43.6375 136.35 42.6347C136.35 41.7147 134.807 41.2946 132.609 40.7119C127.331 39.3197 124.924 38.0838 124.924 34.5786C124.924 31.7787 126.823 28.7826 133.052 28.7826C139.281 28.7826 141.052 31.7787 141.052 35.0171H136.173C136.173 33.8181 135.44 32.8705 133.055 32.8705C130.67 32.8705 130.156 33.7598 130.156 34.505C130.156 35.4557 131.287 35.8605 133.473 36.3971M122.633 41.3621C121.76 45.6554 118.514 48.4798 113.174 48.443C107.472 48.4031 103.431 44.3889 103.431 38.6297C103.431 32.8705 107.484 28.8163 113.174 28.8163C118.097 28.8163 121.33 31.4843 122.48 35.5385H117.28C116.457 34.2842 115.097 33.5513 113.358 33.5513C110.508 33.5513 108.6 35.5661 108.6 38.6419C108.6 41.7178 110.508 43.7326 113.358 43.7326C115.26 43.7326 116.734 42.8433 117.507 41.3866L122.633 41.3621ZM96.0797 5.61086H101.143V24.6641H96.0797V5.61086ZM96.0797 29.0923H101.143V48.1455H96.0797V29.0923Z" fill="white"/>
</g>
</g>
<defs>
<filter id="filter0_d_778_1390" x="0.356201" y="4.55566" width="165.882" height="52.8877" filterUnits="userSpaceOnUse" color-interpolation-filters="sRGB">
<feFlood flood-opacity="0" result="BackgroundImageFix"/>
<feColorMatrix in="SourceAlpha" type="matrix" values="0 0 0 0 0 0 0 0 0 0 0 0 0 0 0 0 0 0 127 0" result="hardAlpha"/>
<feOffset dy="4"/>
<feGaussianBlur stdDeviation="2.5"/>
<feComposite in2="hardAlpha" operator="out"/>
<feColorMatrix type="matrix" values="0 0 0 0 0.108333 0 0 0 0 0.108333 0 0 0 0 0.108333 0 0 0 0.35 0"/>
<feBlend mode="normal" in2="BackgroundImageFix" result="effect1_dropShadow_778_1390"/>
<feBlend mode="normal" in="SourceGraphic" in2="effect1_dropShadow_778_1390" result="shape"/>
</filter>
<clipPath id="clip0_778_1390">
<rect width="167" height="57" fill="white" transform="translate(0.797607)"/>
</clipPath>
</defs>
</svg>
