<svg width="168" height="58" viewBox="0 0 168 58" fill="none" xmlns="http://www.w3.org/2000/svg">
<g clip-path="url(#clip0_107_9027)">
<g filter="url(#filter0_d_107_9027)">
<path d="M143.395 29.2353L143.012 30.2135L142.631 29.2353H142.242V30.6153H142.494V29.5389L142.912 30.6153H143.102L143.52 29.5389V30.6153H143.8V29.2353H143.395ZM140.82 29.2353V29.453H141.25V30.6153H141.521V29.453H141.949V29.2353H140.82ZM49.155 29.2383H44.7435L45.6788 31.4617L38.0062 48.2915H43.1847L43.8581 46.6754L51.3404 45.277L52.6592 48.2915H57.8345L49.155 29.2383ZM45.7567 42.1521H45.7318L47.8081 37.1687L49.6787 41.4191L45.7567 42.1521ZM78.1148 5.75686V24.8101H73.1608V15.1133L68.8211 20.1825H68.4594L64.1446 15.1133V24.8101H59.1564V5.75686H62.0651L68.6652 13.951L75.4118 5.75686H78.1148ZM161.259 5.75686L159.227 10.2189H152.935V28.3429L147.853 29.2353V10.2219H141.325L142.242 12.4483V24.8101H137.169V16.9625L130.641 18.1891V24.8101H125.578V5.75686H130.641V13.8253L137.169 12.5986V5.75686H161.259ZM93.6968 29.2353V33.7003H87.9198V48.2915H82.8318V33.7003H77.9901L75.9543 29.2353H93.6968ZM85.5566 10.2219V13.2211H93.1793L91.1933 17.5789H85.5566V24.8101H80.5123V5.75686H93.6905V10.2219H85.5566ZM49.2454 5.75686H44.8339L45.7692 7.98326L38.0873 24.8101H43.2688L43.9422 23.1817L51.4246 21.7833L52.7652 24.8101H57.9405L49.2454 5.75686ZM45.8503 18.6706H45.8253L47.9017 13.6903L49.7567 17.9377L45.8503 18.6706ZM29.3828 10.2219V13.2211H37.0086L34.9946 17.5789H29.3828V20.3389H37.5261L35.4747 24.8101H24.3291V12.2153L25.2395 10.2219H18.7828V29.2353L13.6948 28.3153V10.2219H7.41278L5.37695 5.75686H37.5105V10.2219H29.3828ZM122.95 15.7082V24.8101L118.638 24.0649C117.023 24.9665 115.411 25.3283 113.176 25.3283C107.486 25.3283 103.452 21.2803 103.452 15.515C103.452 9.74966 107.486 5.70166 113.176 5.70166C118.046 5.70166 121.26 8.31753 122.432 12.3042H117.21C116.78 11.7014 116.203 11.2141 115.532 10.8868C114.861 10.5595 114.117 10.4026 113.369 10.4305C110.523 10.4305 108.618 12.4391 108.618 15.5119C108.618 18.5847 110.523 20.5903 113.369 20.5903C115.467 20.5903 117.98 19.3637 117.98 15.699H122.953L122.95 15.7082ZM76.3097 41.5081C75.4367 45.8014 72.1944 48.6258 66.8507 48.589C61.1485 48.5491 57.1112 44.5349 57.1112 38.7757C57.1112 33.0165 61.1485 28.9623 66.8507 28.9623C71.7735 28.9623 75.0096 31.6303 76.1569 35.6845H70.9629C70.143 34.4302 68.765 33.6973 67.044 33.6973C64.1914 33.6973 62.2834 35.7121 62.2834 38.7879C62.2834 41.8638 64.1914 43.8786 67.044 43.8786C68.9458 43.8786 70.4173 42.9893 71.1936 41.5326L76.3097 41.5081ZM42.0717 29.2353L40.039 33.7003H35.1941V48.2915H30.1061V33.7003H24.3291V29.2353H42.0717ZM133.481 36.5585C139.093 37.9385 141.684 38.9535 141.684 42.4955C141.684 46.0375 139.258 48.589 133.063 48.589C126.809 48.589 124.402 45.4242 124.402 41.5081H129.303C129.303 43.3695 130.55 44.4674 133.063 44.4674C134.993 44.4674 136.371 43.7835 136.371 42.7807C136.371 41.8607 134.828 41.4406 132.63 40.8579C127.352 39.4657 124.945 38.2298 124.945 34.7246C124.945 31.9247 126.844 28.9286 133.073 28.9286C139.302 28.9286 141.073 31.9247 141.073 35.1631H136.193C136.193 33.9641 135.461 33.0165 133.076 33.0165C130.691 33.0165 130.176 33.9058 130.176 34.651C130.176 35.6017 131.308 36.0065 133.494 36.5431M122.653 41.5081C121.781 45.8014 118.535 48.6258 113.195 48.589C107.492 48.5491 103.452 44.5349 103.452 38.7757C103.452 33.0165 107.505 28.9623 113.195 28.9623C118.117 28.9623 121.35 31.6303 122.501 35.6845H117.3C116.477 34.4302 115.118 33.6973 113.378 33.6973C110.529 33.6973 108.621 35.7121 108.621 38.7879C108.621 41.8638 110.529 43.8786 113.378 43.8786C115.28 43.8786 116.755 42.9893 117.528 41.5326L122.653 41.5081ZM96.1005 5.75686H101.164V24.8101H96.1005V5.75686ZM96.1005 29.2383H101.164V48.2915H96.1005V29.2383Z" fill="white"/>
</g>
</g>
<defs>
<filter id="filter0_d_107_9027" x="0.376953" y="4.70166" width="165.882" height="52.8877" filterUnits="userSpaceOnUse" color-interpolation-filters="sRGB">
<feFlood flood-opacity="0" result="BackgroundImageFix"/>
<feColorMatrix in="SourceAlpha" type="matrix" values="0 0 0 0 0 0 0 0 0 0 0 0 0 0 0 0 0 0 127 0" result="hardAlpha"/>
<feOffset dy="4"/>
<feGaussianBlur stdDeviation="2.5"/>
<feComposite in2="hardAlpha" operator="out"/>
<feColorMatrix type="matrix" values="0 0 0 0 0.375 0 0 0 0 0.137 0 0 0 0 0.003125 0 0 0 0.35 0"/>
<feBlend mode="normal" in2="BackgroundImageFix" result="effect1_dropShadow_107_9027"/>
<feBlend mode="normal" in="SourceGraphic" in2="effect1_dropShadow_107_9027" result="shape"/>
</filter>
<clipPath id="clip0_107_9027">
<rect width="167" height="57" fill="white" transform="translate(0.818359 0.145752)"/>
</clipPath>
</defs>
</svg>
