<svg width="18" height="17" viewBox="0 0 18 17" fill="none" xmlns="http://www.w3.org/2000/svg">
<g clip-path="url(#clip0_778_2261)">
<path d="M9.45874 10.1826C10.559 10.1826 11.4509 9.29068 11.4509 8.19043C11.4509 7.09017 10.559 6.19824 9.45874 6.19824C8.35849 6.19824 7.46655 7.09017 7.46655 8.19043C7.46655 9.29068 8.35849 10.1826 9.45874 10.1826Z" fill="white"/>
<path d="M13.267 4.71348L12.9149 4.36133L12.2105 5.06567L12.5627 5.41782C13.3874 6.24248 13.8415 7.33892 13.8415 8.50518C13.8415 9.67144 13.3874 10.7679 12.5627 11.5925L12.2105 11.9447L12.9149 12.649L13.267 12.2969C14.2799 11.2841 14.8376 9.93749 14.8376 8.50518C14.8376 7.07286 14.2799 5.72627 13.267 4.71348Z" fill="white"/>
<path d="M15.3767 2.27211L15.0246 1.91992L14.3203 2.62426L14.6724 2.97641C16.1493 4.45332 16.9627 6.41692 16.9627 8.50553C16.9627 10.5941 16.1493 12.5577 14.6724 14.0346L14.3203 14.3868L15.0246 15.0911L15.3767 14.7389C17.0418 13.0739 17.9587 10.8602 17.9587 8.50553C17.9587 6.15083 17.0418 3.93711 15.3767 2.27211Z" fill="white"/>
<path d="M6.70694 5.06567L6.0026 4.36133L5.65045 4.71348C3.55971 6.80425 3.55971 10.2061 5.65045 12.2969L6.0026 12.6491L6.70694 11.9447L6.35475 11.5926C4.6524 9.89021 4.6524 7.12021 6.35475 5.41782L6.70694 5.06567Z" fill="white"/>
<path d="M4.24505 2.97645L4.59724 2.62429L3.8929 1.91992L3.54071 2.27211C1.87571 3.93711 0.95874 6.15083 0.95874 8.50553C0.95874 10.8602 1.87571 13.0739 3.54071 14.7389L3.89287 15.0911L4.59721 14.3868L4.24502 14.0346C1.19631 10.9859 1.19631 6.02519 4.24505 2.97645Z" fill="white"/>
</g>
<defs>
<clipPath id="clip0_778_2261">
<rect width="17" height="17" fill="white" transform="translate(0.95874 0.00585938)"/>
</clipPath>
</defs>
</svg>
