<svg width="18" height="18" viewBox="0 0 18 18" fill="none" xmlns="http://www.w3.org/2000/svg">
<g clip-path="url(#clip0_110_10219)">
<path d="M8.77539 10.4451C9.87565 10.4451 10.7676 9.5532 10.7676 8.45294C10.7676 7.35269 9.87565 6.46075 8.77539 6.46075C7.67514 6.46075 6.7832 7.35269 6.7832 8.45294C6.7832 9.5532 7.67514 10.4451 8.77539 10.4451Z" fill="white"/>
<path d="M12.5838 4.97666L12.2317 4.62451L11.5273 5.32885L11.8795 5.681C12.7042 6.50567 13.1583 7.6021 13.1583 8.76836C13.1583 9.93462 12.7042 11.0311 11.8795 11.8557L11.5273 12.2079L12.2317 12.9122L12.5838 12.5601C13.5967 11.5473 14.1544 10.2007 14.1544 8.76836C14.1544 7.33604 13.5967 5.98946 12.5838 4.97666Z" fill="white"/>
<path d="M14.6932 2.53492L14.3411 2.18274L13.6367 2.88708L13.9889 3.23923C15.4658 4.71614 16.2791 6.67974 16.2791 8.76835C16.2791 10.857 15.4658 12.8206 13.9889 14.2974L13.6367 14.6496L14.3411 15.3539L14.6932 15.0018C16.3582 13.3368 17.2752 11.123 17.2752 8.76835C17.2752 6.41365 16.3582 4.19993 14.6932 2.53492Z" fill="white"/>
<path d="M6.02396 5.32879L5.31962 4.62445L4.96746 4.9766C2.87673 7.06737 2.87673 10.4693 4.96746 12.56L5.31962 12.9122L6.02396 12.2078L5.67177 11.8557C3.96941 10.1533 3.96941 7.38333 5.67177 5.68094L6.02396 5.32879Z" fill="white"/>
<path d="M3.5617 3.23926L3.91389 2.88711L3.20955 2.18274L2.85737 2.53492C1.19236 4.19993 0.275391 6.41365 0.275391 8.76835C0.275391 11.123 1.19236 13.3368 2.85737 15.0018L3.20952 15.3539L3.91386 14.6496L3.56167 14.2974C0.512959 11.2487 0.512959 6.28801 3.5617 3.23926Z" fill="white"/>
</g>
<defs>
<clipPath id="clip0_110_10219">
<rect width="17" height="17" fill="white" transform="translate(0.275391 0.268372)"/>
</clipPath>
</defs>
</svg>
