<svg width="143" height="99" viewBox="0 0 143 99" fill="none" xmlns="http://www.w3.org/2000/svg">
<g clip-path="url(#clip0_107_9457)">
<path d="M34.4019 2.112C34.8368 1.84989 35.1139 2.37965 35.3485 2.6584C50.4444 21.7479 65.5582 40.8236 80.6527 59.9131C80.9628 60.1849 80.7282 60.766 80.3097 60.7035C73.0821 60.7119 65.8531 60.7063 58.6255 60.7063C58.0466 60.7133 57.4923 60.422 57.1369 59.9658C49.6377 50.4952 42.1426 41.0205 34.6433 31.5485C34.325 31.1658 34.1604 30.6707 34.181 30.1728C34.181 21.0226 34.1837 11.871 34.1782 2.72081C34.1823 2.50446 34.1741 2.22433 34.4019 2.112Z" fill="white"/>
<path d="M104.219 2.06761C104.528 1.94973 104.868 2.23819 104.823 2.56547C104.834 11.7198 104.822 20.8742 104.828 30.0286C104.849 30.5472 104.736 31.0839 104.403 31.4917C102.124 34.3735 99.8426 37.2539 97.5637 40.1343C97.1837 40.6335 96.5622 40.9095 95.9407 40.8776C88.7611 40.8707 81.5802 40.8818 74.4006 40.8721C73.9767 40.9386 73.7352 40.3603 74.048 40.0816C84.0045 27.4907 93.9692 14.904 103.931 2.31585C104.007 2.20768 104.103 2.12447 104.219 2.06761Z" fill="white"/>
<path d="M54.5797 76.4494C56.7584 76.111 59.0455 76.5007 60.9827 77.5714C62.861 78.599 64.4044 80.2396 65.3223 82.1908C66.3403 84.3307 66.5776 86.8325 66.0028 89.1346C65.4567 91.3632 64.1355 93.3852 62.3327 94.7817C59.2499 97.2364 54.732 97.5983 51.2993 95.6804C49.3236 94.6084 47.7211 92.8568 46.817 90.7822C45.6783 88.2055 45.6632 85.1503 46.7731 82.5597C48.1108 79.3479 51.1648 76.9473 54.5797 76.4494ZM55.1298 79.9165C52.9429 80.2507 51.0194 81.8206 50.1619 83.8717C49.2756 85.913 49.4498 88.3885 50.6311 90.2732C51.5997 91.8611 53.2516 93.0177 55.0791 93.3145C56.9367 93.6445 58.9151 93.0635 60.331 91.8098C61.9458 90.4133 62.8198 88.211 62.6373 86.0725C62.5001 84.1643 61.5315 82.3337 60.021 81.1757C58.6517 80.1051 56.8407 79.6322 55.1298 79.9165Z" fill="white"/>
<path d="M0.728027 76.9223C1.57591 76.6894 2.47181 76.878 3.33891 76.8114C3.6476 76.8544 4.11682 76.6935 4.29106 77.0458C4.35143 77.5048 4.31301 77.9694 4.3185 78.4326C4.3185 82.4696 4.31713 86.508 4.3185 90.545C7.8198 86.1225 11.317 81.6971 14.8142 77.2718C14.9966 77.0416 15.245 76.8377 15.5509 76.8322C16.5552 76.7878 17.5609 76.8377 18.5665 76.8128C18.9424 76.8197 19.3595 76.7476 19.6806 77C18.5103 78.5588 17.27 80.0635 16.0709 81.6001C12.4763 86.1488 8.88034 90.6962 5.28438 95.2436C5.01684 95.5736 4.78223 95.937 4.46256 96.2226C4.14838 96.4848 3.71071 96.4029 3.33479 96.4237C2.46633 96.3932 1.59238 96.4709 0.728027 96.3627V76.9223Z" fill="white"/>
<path d="M25.0396 77.6268C25.4128 77.1151 26.0247 76.8044 26.6544 76.8183C27.431 76.8197 28.2089 76.8044 28.9854 76.8252C29.253 76.7961 29.4025 77.0763 29.3682 77.3148C29.3682 83.5138 29.3682 89.7143 29.3682 95.9134C29.4039 96.1519 29.2598 96.4431 28.9854 96.4126C28.0237 96.4237 27.0619 96.4237 26.1002 96.4112C25.7476 96.4209 25.469 96.1699 25.2715 95.9023C23.6086 93.7915 21.9376 91.6877 20.2747 89.577C18.5817 91.7085 16.8983 93.847 15.2094 95.9827C15.0283 96.2171 14.7662 96.414 14.4589 96.4098C13.3572 96.4348 12.2541 96.4043 11.1511 96.4223C10.8808 96.4043 10.5419 96.4917 10.3745 96.2074C15.2341 89.9917 20.1595 83.8259 25.0396 77.6268ZM22.2998 86.6189C23.4413 88.0543 24.5663 89.5021 25.716 90.9292C25.7242 88.0515 25.7215 85.1753 25.7187 82.2976C24.5759 83.7357 23.4371 85.1766 22.2998 86.6189Z" fill="white"/>
<path d="M33.7242 77.3106C33.6982 77.0915 33.8162 76.8225 34.0672 76.828C35.0345 76.8045 36.0059 76.8142 36.9745 76.8239C37.2516 76.7934 37.4245 77.0707 37.3806 77.3273C37.3861 82.5223 37.3833 87.7173 37.382 92.9137C40.071 92.9234 42.7601 92.9068 45.4478 92.9206C45.6783 92.8707 45.8224 93.1661 45.6399 93.3228C44.9402 94.2339 44.2172 95.1284 43.5051 96.0326C43.2897 96.3267 42.9248 96.4459 42.5735 96.4196C39.739 96.4099 36.9031 96.4307 34.0686 96.4099C33.8079 96.421 33.6996 96.1353 33.7242 95.9148C33.7242 89.7143 33.7229 83.5125 33.7242 77.3106Z" fill="white"/>
<path d="M69.556 77.3176C69.4929 77.0319 69.7206 76.7725 70.0074 76.8197C74.9081 76.8141 79.8074 76.8169 84.7068 76.8183C84.9332 76.7864 85.2007 76.9293 85.1787 77.19C85.1938 78.5324 85.1815 79.8762 85.1842 81.2187C85.213 81.539 85.0457 81.8206 84.8508 82.0563C83.4363 83.8245 82.0451 85.6107 80.6265 87.3761C80.5565 87.5009 80.3233 87.666 80.5003 87.8102C82.6433 90.5339 84.8042 93.2451 86.9445 95.9702C87.0995 96.1006 87.1023 96.4112 86.8484 96.4043C85.578 96.432 84.3062 96.4182 83.0357 96.4112C82.5377 96.4182 82.2564 95.9508 81.9807 95.6069C80.0132 93.112 78.0444 90.6185 76.0702 88.1306C75.9234 87.9475 75.6984 87.6826 75.9028 87.4566C77.7618 85.0712 79.6551 82.7109 81.5238 80.3311C78.7565 80.3186 75.9878 80.3547 73.2219 80.3131C73.1725 85.5552 73.2247 90.8002 73.1959 96.0423C73.2274 96.2864 72.9777 96.4487 72.7609 96.4154C71.8006 96.4154 70.8402 96.4306 69.8798 96.4085C69.6246 96.4112 69.5217 96.1214 69.5546 95.9064C69.556 89.7101 69.5546 83.5139 69.556 77.3176Z" fill="white"/>
<path d="M90.066 77.3273C90.0221 77.0777 90.1826 76.792 90.4598 76.8239C91.3749 76.8073 92.2927 76.817 93.2092 76.8197C93.5522 76.7989 93.8842 76.9612 94.0859 77.2427C98.6587 83.0257 103.23 88.8101 107.803 94.5932C108.197 95.1271 108.669 95.6069 109.01 96.1797C108.977 96.2338 108.912 96.3419 108.879 96.396C107.77 96.4529 106.657 96.396 105.547 96.421C105.11 96.4279 104.58 96.4654 104.291 96.0604C102.573 93.9067 100.872 91.7391 99.1622 89.5784C97.4692 91.7086 95.7844 93.847 94.0969 95.9814C93.9158 96.2185 93.651 96.4127 93.3437 96.4113C92.386 96.4251 91.4284 96.421 90.4721 96.414C90.1867 96.4543 90.0207 96.163 90.066 95.9092C90.066 89.7157 90.0674 83.5208 90.066 77.3273ZM93.7168 82.3074C93.7127 85.1836 93.7127 88.0585 93.7168 90.9347C94.8583 89.498 95.9943 88.0571 97.1317 86.6176C95.9916 85.1822 94.8638 83.7358 93.7168 82.3074Z" fill="white"/>
<path d="M106.189 77.3328C106.161 77.1179 106.255 76.8378 106.506 76.8322C107.419 76.7948 108.333 76.8267 109.245 76.817C109.599 76.7934 109.969 76.9112 110.185 77.2108C113.704 81.6514 117.209 86.1031 120.731 90.5409C120.731 86.135 120.73 81.729 120.731 77.3217C120.672 77.0444 120.886 76.7753 121.173 76.8197C122.139 76.8211 123.105 76.7975 124.069 76.8322C124.316 76.8419 124.405 77.1193 124.378 77.3328C124.378 83.5236 124.378 89.7143 124.378 95.9051C124.407 96.1159 124.315 96.4016 124.065 96.4057C123.106 96.4334 122.144 96.414 121.185 96.4154C120.868 96.4279 120.568 96.274 120.381 96.0202C116.866 91.5838 113.364 87.1362 109.846 82.7026C109.842 85.3029 109.853 87.9045 109.842 90.5048C109.909 90.7364 109.582 90.9347 109.444 90.7239C108.434 89.4855 107.459 88.218 106.463 86.9684C106.24 86.723 106.169 86.3929 106.185 86.0698C106.191 83.1575 106.184 80.2452 106.189 77.3328Z" fill="white"/>
<path d="M126.901 77.1886C126.872 76.9362 127.138 76.7906 127.356 76.8197C131.385 76.8128 135.413 76.8197 139.441 76.8169C139.789 76.7947 140.154 76.9099 140.367 77.2066C141.08 78.1053 141.801 79.0012 142.502 79.9109C142.687 80.0635 142.548 80.3658 142.315 80.3242C140.209 80.3408 138.102 80.3242 135.994 80.3311C135.985 85.5234 136.007 90.7156 136.005 95.9078C136.055 96.1561 135.886 96.4418 135.612 96.4126C134.65 96.421 133.687 96.4251 132.726 96.4112C132.522 96.4293 132.344 96.2462 132.364 96.0424C132.33 90.8057 132.363 85.5677 132.335 80.3311C130.674 80.327 129.011 80.3367 127.351 80.3284C127.13 80.3547 126.867 80.2008 126.901 79.9484C126.887 79.0289 126.886 78.1081 126.901 77.1886Z" fill="white"/>
</g>
<defs>
<clipPath id="clip0_107_9457">
<rect width="142" height="98" fill="white" transform="translate(0.728027 0.797607)"/>
</clipPath>
</defs>
</svg>
