<svg width="143" height="99" viewBox="0 0 143 99" fill="none" xmlns="http://www.w3.org/2000/svg">
<g clip-path="url(#clip0_107_9486)">
<path d="M34.604 2.112C35.0389 1.84989 35.3161 2.37965 35.5507 2.6584C50.6466 21.7479 65.7603 40.8236 80.8548 59.9131C81.1649 60.1849 80.9303 60.766 80.5118 60.7035C73.2843 60.7119 66.0553 60.7063 58.8277 60.7063C58.2487 60.7133 57.6944 60.422 57.3391 59.9658C49.8398 50.4952 42.3447 41.0205 34.8455 31.5485C34.5272 31.1658 34.3625 30.6707 34.3831 30.1728C34.3831 21.0226 34.3859 11.871 34.3804 2.72081C34.3845 2.50446 34.3763 2.22433 34.604 2.112Z" fill="#FF4654"/>
<path d="M104.421 2.06761C104.73 1.94973 105.07 2.23819 105.025 2.56547C105.036 11.7198 105.024 20.8742 105.031 30.0286C105.051 30.5472 104.939 31.0839 104.605 31.4917C102.326 34.3735 100.045 37.2539 97.7659 40.1343C97.3859 40.6335 96.7643 40.9095 96.1428 40.8776C88.9633 40.8707 81.7823 40.8818 74.6027 40.8721C74.1788 40.9386 73.9373 40.3603 74.2501 40.0816C84.2066 27.4907 94.1713 14.904 104.133 2.31585C104.209 2.20768 104.305 2.12447 104.421 2.06761Z" fill="#FF4654"/>
<path d="M54.7818 76.4494C56.9605 76.111 59.2476 76.5007 61.1849 77.5714C63.0631 78.599 64.6066 80.2396 65.5244 82.1908C66.5424 84.3307 66.7798 86.8325 66.2049 89.1346C65.6589 91.3632 64.3377 93.3852 62.5349 94.7817C59.452 97.2364 54.9341 97.5983 51.5014 95.6804C49.5258 94.6084 47.9233 92.8568 47.0192 90.7822C45.8804 88.2055 45.8653 85.1503 46.9753 82.5597C48.3129 79.3479 51.367 76.9473 54.7818 76.4494ZM55.332 79.9165C53.1451 80.2507 51.2215 81.8206 50.364 83.8717C49.4777 85.913 49.652 88.3885 50.8333 90.2732C51.8019 91.8611 53.4537 93.0177 55.2812 93.3145C57.1389 93.6445 59.1173 93.0635 60.5332 91.8098C62.148 90.4133 63.0219 88.211 62.8395 86.0725C62.7023 84.1643 61.7337 82.3337 60.2231 81.1757C58.8539 80.1051 57.0428 79.6322 55.332 79.9165Z" fill="#FF4654"/>
<path d="M0.930176 76.9223C1.77806 76.6894 2.67396 76.878 3.54106 76.8114C3.84975 76.8544 4.31897 76.6935 4.49321 77.0458C4.55358 77.5048 4.51516 77.9694 4.52065 78.4326C4.52065 82.4696 4.51928 86.508 4.52065 90.545C8.02194 86.1225 11.5191 81.6971 15.0163 77.2718C15.1988 77.0416 15.4471 76.8377 15.7531 76.8322C16.7573 76.7878 17.763 76.8377 18.7687 76.8128C19.1446 76.8197 19.5617 76.7476 19.8827 77C18.7124 78.5588 17.4721 80.0635 16.273 81.6001C12.6784 86.1488 9.08249 90.6962 5.48652 95.2436C5.21899 95.5736 4.98438 95.937 4.66471 96.2226C4.35052 96.4848 3.91286 96.4029 3.53694 96.4237C2.66848 96.3932 1.79452 96.4709 0.930176 96.3627V76.9223Z" fill="#FF4654"/>
<path d="M25.2418 77.6268C25.6149 77.1151 26.2268 76.8044 26.8566 76.8183C27.6331 76.8197 28.411 76.8044 29.1876 76.8252C29.4551 76.7961 29.6047 77.0763 29.5704 77.3148C29.5704 83.5138 29.5704 89.7143 29.5704 95.9134C29.606 96.1519 29.462 96.4431 29.1876 96.4126C28.2258 96.4237 27.2641 96.4237 26.3023 96.4112C25.9497 96.4209 25.6712 96.1699 25.4736 95.9023C23.8108 93.7915 22.1397 91.6877 20.4769 89.577C18.7838 91.7085 17.1004 93.847 15.4115 95.9827C15.2304 96.2171 14.9684 96.414 14.661 96.4098C13.5593 96.4348 12.4563 96.4043 11.3532 96.4223C11.0829 96.4043 10.744 96.4917 10.5767 96.2074C15.4362 89.9917 20.3616 83.8259 25.2418 77.6268ZM22.5019 86.6189C23.6434 88.0543 24.7684 89.5021 25.9181 90.9292C25.9264 88.0515 25.9236 85.1753 25.9209 82.2976C24.778 83.7357 23.6393 85.1766 22.5019 86.6189Z" fill="#FF4654"/>
<path d="M33.9264 77.3106C33.9003 77.0915 34.0183 76.8225 34.2694 76.828C35.2366 76.8045 36.208 76.8142 37.1766 76.8239C37.4538 76.7934 37.6266 77.0707 37.5827 77.3273C37.5882 82.5223 37.5855 87.7173 37.5841 92.9137C40.2732 92.9234 42.9623 92.9068 45.65 92.9206C45.8805 92.8707 46.0245 93.1661 45.8421 93.3228C45.1423 94.2339 44.4193 95.1284 43.7072 96.0326C43.4918 96.3267 43.1269 96.4459 42.7757 96.4196C39.9412 96.4099 37.1053 96.4307 34.2708 96.4099C34.0101 96.421 33.9017 96.1353 33.9264 95.9148C33.9264 89.7143 33.925 83.5125 33.9264 77.3106Z" fill="#FF4654"/>
<path d="M69.7581 77.3176C69.695 77.0319 69.9228 76.7725 70.2095 76.8197C75.1102 76.8141 80.0096 76.8169 84.9089 76.8183C85.1353 76.7864 85.4028 76.9293 85.3809 77.19C85.396 78.5324 85.3836 79.8762 85.3864 81.2187C85.4152 81.539 85.2478 81.8206 85.053 82.0563C83.6385 83.8245 82.2473 85.6107 80.8287 87.3761C80.7587 87.5009 80.5254 87.666 80.7024 87.8102C82.8455 90.5339 85.0063 93.2451 87.1466 95.9702C87.3017 96.1006 87.3044 96.4112 87.0506 96.4043C85.7801 96.432 84.5083 96.4182 83.2379 96.4112C82.7398 96.4182 82.4586 95.9508 82.1828 95.6069C80.2154 93.112 78.2466 90.6185 76.2723 88.1306C76.1255 87.9475 75.9005 87.6826 76.1049 87.4566C77.964 85.0712 79.8573 82.7109 81.7259 80.3311C78.9587 80.3186 76.19 80.3547 73.4241 80.3131C73.3747 85.5552 73.4268 90.8002 73.398 96.0423C73.4296 96.2864 73.1799 96.4487 72.9631 96.4154C72.0027 96.4154 71.0423 96.4306 70.0819 96.4085C69.8267 96.4112 69.7238 96.1214 69.7568 95.9064C69.7581 89.7101 69.7568 83.5139 69.7581 77.3176Z" fill="#FF4654"/>
<path d="M90.2681 77.3273C90.2242 77.0777 90.3848 76.792 90.6619 76.8239C91.577 76.8073 92.4949 76.817 93.4113 76.8197C93.7543 76.7989 94.0864 76.9612 94.288 77.2427C98.8609 83.0257 103.432 88.8101 108.005 94.5932C108.399 95.1271 108.871 95.6069 109.212 96.1797C109.18 96.2338 109.114 96.3419 109.081 96.396C107.972 96.4529 106.86 96.396 105.75 96.421C105.312 96.4279 104.782 96.4654 104.493 96.0604C102.775 93.9067 101.074 91.7391 99.3644 89.5784C97.6714 91.7086 95.9866 93.847 94.299 95.9814C94.1179 96.2185 93.8531 96.4127 93.5458 96.4113C92.5882 96.4251 91.6305 96.421 90.6742 96.414C90.3889 96.4543 90.2229 96.163 90.2681 95.9092C90.2681 89.7157 90.2695 83.5208 90.2681 77.3273ZM93.919 82.3074C93.9149 85.1836 93.9149 88.0585 93.919 90.9347C95.0605 89.498 96.1965 88.0571 97.3338 86.6176C96.1937 85.1822 95.066 83.7358 93.919 82.3074Z" fill="#FF4654"/>
<path d="M106.392 77.3328C106.363 77.1179 106.457 76.8378 106.709 76.8322C107.621 76.7948 108.535 76.8267 109.447 76.817C109.801 76.7934 110.171 76.9112 110.387 77.2108C113.906 81.6514 117.411 86.1031 120.933 90.5409C120.933 86.135 120.932 81.729 120.933 77.3217C120.874 77.0444 121.088 76.7753 121.375 76.8197C122.341 76.8211 123.307 76.7975 124.271 76.8322C124.518 76.8419 124.607 77.1193 124.58 77.3328C124.58 83.5236 124.58 89.7143 124.58 95.9051C124.609 96.1159 124.517 96.4016 124.267 96.4057C123.308 96.4334 122.346 96.414 121.387 96.4154C121.07 96.4279 120.77 96.274 120.583 96.0202C117.068 91.5838 113.566 87.1362 110.048 82.7026C110.044 85.3029 110.055 87.9045 110.044 90.5048C110.111 90.7364 109.785 90.9347 109.646 90.7239C108.636 89.4855 107.661 88.218 106.665 86.9684C106.442 86.723 106.371 86.3929 106.388 86.0698C106.393 83.1575 106.386 80.2452 106.392 77.3328Z" fill="#FF4654"/>
<path d="M127.103 77.1886C127.074 76.9362 127.34 76.7906 127.559 76.8197C131.587 76.8128 135.615 76.8197 139.643 76.8169C139.991 76.7947 140.356 76.9099 140.569 77.2066C141.283 78.1053 142.003 79.0012 142.704 79.9109C142.889 80.0635 142.751 80.3658 142.517 80.3242C140.411 80.3408 138.304 80.3242 136.197 80.3311C136.187 85.5234 136.209 90.7156 136.208 95.9078C136.257 96.1561 136.088 96.4418 135.814 96.4126C134.852 96.421 133.889 96.4251 132.929 96.4112C132.724 96.4293 132.546 96.2462 132.566 96.0424C132.532 90.8057 132.565 85.5677 132.538 80.3311C130.876 80.327 129.213 80.3367 127.553 80.3284C127.332 80.3547 127.069 80.2008 127.103 79.9484C127.089 79.0289 127.088 78.1081 127.103 77.1886Z" fill="#FF4654"/>
</g>
<defs>
<clipPath id="clip0_107_9486">
<rect width="142" height="98" fill="white" transform="translate(0.930176 0.797607)"/>
</clipPath>
</defs>
</svg>
