<svg width="143" height="98" viewBox="0 0 143 98" fill="none" xmlns="http://www.w3.org/2000/svg">
<g clip-path="url(#clip0_778_1677)">
<path d="M33.9879 1.31445C34.4228 1.05234 34.6999 1.5821 34.9345 1.86085C50.0304 20.9504 65.1442 40.026 80.2387 59.1155C80.5488 59.3873 80.3142 59.9684 79.8957 59.906C72.6681 59.9143 65.4391 59.9088 58.2115 59.9088C57.6326 59.9157 57.0783 59.6245 56.7229 59.1682C49.2237 49.6977 41.7286 40.2229 34.2293 30.751C33.911 30.3682 33.7464 29.8731 33.767 29.3753C33.767 20.2251 33.7697 11.0735 33.7642 1.92326C33.7683 1.70692 33.7601 1.42678 33.9879 1.31445Z" fill="white"/>
<path d="M103.805 1.27006C104.114 1.15218 104.454 1.44064 104.409 1.76793C104.42 10.9223 104.408 20.0767 104.414 29.231C104.435 29.7497 104.322 30.2864 103.989 30.6941C101.71 33.5759 99.4286 36.4563 97.1497 39.3367C96.7697 39.836 96.1482 40.112 95.5267 40.0801C88.3471 40.0731 81.1662 40.0842 73.9866 40.0745C73.5627 40.1411 73.3212 39.5628 73.634 39.284C83.5905 26.6932 93.5552 14.1064 103.517 1.5183C103.593 1.41013 103.689 1.32692 103.805 1.27006Z" fill="white"/>
<path d="M54.1656 75.6518C56.3443 75.3134 58.6314 75.7031 60.5686 76.7737C62.4468 77.8013 63.9903 79.4419 64.9082 81.3932C65.9262 83.533 66.1635 86.0348 65.5887 88.337C65.0426 90.5656 63.7214 92.5875 61.9186 93.9841C58.8358 96.4387 54.3178 96.8007 50.8851 94.8827C48.9095 93.8107 47.307 92.0592 46.4029 89.9845C45.2641 87.4078 45.2491 84.3526 46.359 81.7621C47.6967 78.5502 50.7507 76.1496 54.1656 75.6518ZM54.7157 79.1188C52.5288 79.453 50.6053 81.0229 49.7478 83.074C48.8615 85.1154 49.0357 87.5908 50.217 89.4755C51.1856 91.0634 52.8375 92.22 54.665 92.5168C56.5226 92.8469 58.501 92.2658 59.9169 91.0121C61.5317 89.6156 62.4057 87.4133 62.2232 85.2749C62.086 83.3666 61.1174 81.536 59.6068 80.378C58.2376 79.3074 56.4266 78.8345 54.7157 79.1188Z" fill="white"/>
<path d="M0.313965 76.125C1.16185 75.892 2.05775 76.0806 2.92484 76.0141C3.23354 76.057 3.70276 75.8962 3.877 76.2484C3.93737 76.7075 3.89895 77.172 3.90444 77.6352C3.90444 81.6723 3.90307 85.7107 3.90444 89.7477C7.40573 85.3251 10.9029 80.8998 14.4001 76.4745C14.5826 76.2443 14.8309 76.0404 15.1368 76.0349C16.1411 75.9905 17.1468 76.0404 18.1525 76.0154C18.5284 76.0224 18.9455 75.9503 19.2665 76.2027C18.0962 77.7615 16.8559 79.2661 15.6568 80.8027C12.0622 85.3515 8.46627 89.8989 4.87031 94.4462C4.60278 94.7763 4.36817 95.1396 4.0485 95.4253C3.73431 95.6874 3.29665 95.6056 2.92073 95.6264C2.05226 95.5959 1.17831 95.6736 0.313965 95.5654V76.125Z" fill="white"/>
<path d="M24.6255 76.8292C24.9987 76.3175 25.6106 76.0068 26.2403 76.0207C27.0169 76.0221 27.7948 76.0068 28.5713 76.0276C28.8388 75.9985 28.9884 76.2786 28.9541 76.5172C28.9541 82.7162 28.9541 88.9167 28.9541 95.1158C28.9898 95.3543 28.8457 95.6455 28.5713 95.615C27.6096 95.6261 26.6478 95.6261 25.686 95.6136C25.3334 95.6233 25.0549 95.3723 24.8574 95.1047C23.1945 92.9939 21.5234 90.8901 19.8606 88.7794C18.1676 90.9109 16.4842 93.0494 14.7952 95.1851C14.6141 95.4195 14.3521 95.6164 14.0448 95.6122C12.9431 95.6372 11.84 95.6067 10.7369 95.6247C10.4666 95.6067 10.1278 95.6941 9.96039 95.4098C14.8199 89.1941 19.7454 83.0283 24.6255 76.8292ZM21.8856 85.8213C23.0271 87.2567 24.1522 88.7045 25.3019 90.1315C25.3101 87.2539 25.3074 84.3776 25.3046 81.5C24.1618 82.9381 23.023 84.379 21.8856 85.8213Z" fill="white"/>
<path d="M33.3101 76.5129C33.2841 76.2938 33.402 76.0247 33.6531 76.0303C34.6204 76.0067 35.5917 76.0164 36.5603 76.0261C36.8375 75.9956 37.0104 76.273 36.9665 76.5295C36.9719 81.7245 36.9692 86.9195 36.9678 92.1159C39.6569 92.1257 42.346 92.109 45.0337 92.1229C45.2642 92.073 45.4083 92.3683 45.2258 92.525C44.5261 93.4362 43.803 94.3307 43.091 95.2349C42.8756 95.5289 42.5106 95.6482 42.1594 95.6218C39.3249 95.6121 36.489 95.6329 33.6545 95.6121C33.3938 95.6232 33.2854 95.3375 33.3101 95.117C33.3101 88.9166 33.3088 82.7147 33.3101 76.5129Z" fill="white"/>
<path d="M69.1421 76.5203C69.079 76.2346 69.3068 75.9752 69.5935 76.0224C74.4942 76.0168 79.3936 76.0196 84.2929 76.021C84.5193 75.9891 84.7868 76.132 84.7649 76.3927C84.78 77.7351 84.7676 79.0789 84.7704 80.4214C84.7992 80.7417 84.6318 81.0232 84.437 81.259C83.0224 83.0272 81.6313 84.8134 80.2126 86.5788C80.1427 86.7036 79.9094 86.8687 80.0864 87.0129C82.2294 89.7366 84.3903 92.4478 86.5306 95.1729C86.6856 95.3033 86.6884 95.6139 86.4346 95.607C85.1641 95.6347 83.8923 95.6209 82.6218 95.6139C82.1238 95.6209 81.8425 95.1535 81.5668 94.8096C79.5994 92.3147 77.6306 89.8212 75.6563 87.3333C75.5095 87.1502 75.2845 86.8853 75.4889 86.6593C77.3479 84.2739 79.2413 81.9136 81.1099 79.5338C78.3426 79.5213 75.574 79.5574 72.8081 79.5158C72.7587 84.7579 72.8108 90.0029 72.782 95.245C72.8135 95.4891 72.5638 95.6514 72.3471 95.6181C71.3867 95.6181 70.4263 95.6333 69.4659 95.6112C69.2107 95.6139 69.1078 95.3241 69.1407 95.1091C69.1421 88.9128 69.1407 82.7166 69.1421 76.5203Z" fill="white"/>
<path d="M89.6519 76.5295C89.608 76.2799 89.7685 75.9942 90.0456 76.0261C90.9607 76.0095 91.8786 76.0192 92.7951 76.0219C93.1381 76.0011 93.4701 76.1634 93.6718 76.4449C98.2446 82.2279 102.816 88.0123 107.389 93.7954C107.783 94.3293 108.255 94.8091 108.596 95.3819C108.563 95.436 108.497 95.5441 108.464 95.5982C107.356 95.6551 106.243 95.5982 105.133 95.6232C104.696 95.6301 104.166 95.6676 103.877 95.2626C102.159 93.1089 100.458 90.9413 98.7481 88.7806C97.0551 90.9108 95.3703 93.0493 93.6827 95.1836C93.5016 95.4207 93.2369 95.6149 92.9295 95.6135C91.9719 95.6273 91.0142 95.6232 90.058 95.6163C89.7726 95.6565 89.6066 95.3652 89.6519 95.1115C89.6519 88.9179 89.6532 82.723 89.6519 76.5295ZM93.3027 81.5096C93.2986 84.3858 93.2986 87.2607 93.3027 90.1369C94.4442 88.7002 95.5802 87.2593 96.7176 85.8198C95.5774 84.3844 94.4497 82.938 93.3027 81.5096Z" fill="white"/>
<path d="M105.775 76.5353C105.747 76.3203 105.841 76.0402 106.092 76.0347C107.005 75.9972 107.918 76.0291 108.831 76.0194C109.185 75.9958 109.555 76.1137 109.771 76.4133C113.29 80.8538 116.795 85.3055 120.317 89.7433C120.317 85.3374 120.316 80.9315 120.317 76.5242C120.258 76.2468 120.472 75.9778 120.759 76.0222C121.725 76.0236 122.691 76 123.655 76.0347C123.902 76.0444 123.991 76.3217 123.964 76.5353C123.964 82.726 123.964 88.9168 123.964 95.1075C123.993 95.3183 123.901 95.604 123.651 95.6082C122.692 95.6359 121.73 95.6165 120.771 95.6179C120.454 95.6304 120.154 95.4764 119.967 95.2226C116.452 90.7862 112.949 86.3387 109.432 81.905C109.428 84.5053 109.439 87.107 109.428 89.7073C109.495 89.9389 109.168 90.1372 109.03 89.9264C108.02 88.688 107.044 87.4204 106.048 86.1709C105.826 85.9254 105.755 85.5954 105.771 85.2722C105.777 82.3599 105.77 79.4476 105.775 76.5353Z" fill="white"/>
<path d="M126.487 76.3909C126.458 76.1385 126.724 75.9929 126.942 76.022C130.97 76.0151 134.999 76.022 139.027 76.0193C139.375 75.9971 139.74 76.1122 139.953 76.409C140.666 77.3076 141.387 78.2035 142.088 79.1133C142.273 79.2658 142.134 79.5681 141.901 79.5265C139.795 79.5432 137.688 79.5265 135.58 79.5335C135.571 84.7257 135.593 89.9179 135.591 95.1102C135.641 95.3584 135.472 95.6441 135.198 95.615C134.236 95.6233 133.273 95.6274 132.312 95.6136C132.108 95.6316 131.929 95.4485 131.95 95.2447C131.916 90.0081 131.949 84.7701 131.921 79.5335C130.26 79.5293 128.597 79.539 126.937 79.5307C126.716 79.557 126.453 79.4031 126.487 79.1507C126.473 78.2312 126.472 77.3104 126.487 76.3909Z" fill="white"/>
</g>
<defs>
<clipPath id="clip0_778_1677">
<rect width="142" height="98" fill="white" transform="translate(0.313965)"/>
</clipPath>
</defs>
</svg>
