<svg width="143" height="99" viewBox="0 0 143 99" fill="none" xmlns="http://www.w3.org/2000/svg">
<g clip-path="url(#clip0_107_9068)">
<path d="M33.8062 2.112C34.2411 1.84989 34.5182 2.37965 34.7528 2.6584C49.8487 21.7479 64.9625 40.8236 80.057 59.9131C80.3671 60.1849 80.1325 60.766 79.714 60.7035C72.4864 60.7119 65.2574 60.7063 58.0298 60.7063C57.4509 60.7133 56.8966 60.422 56.5412 59.9658C49.042 50.4952 41.5469 41.0205 34.0476 31.5485C33.7293 31.1658 33.5647 30.6707 33.5853 30.1728C33.5853 21.0226 33.588 11.871 33.5825 2.72081C33.5866 2.50446 33.5784 2.22433 33.8062 2.112Z" fill="#FF4654"/>
<path d="M103.624 2.06761C103.932 1.94973 104.272 2.23819 104.227 2.56547C104.238 11.7198 104.226 20.8742 104.233 30.0286C104.253 30.5472 104.141 31.0839 103.807 31.4917C101.529 34.3735 99.2469 37.2539 96.968 40.1343C96.588 40.6335 95.9665 40.9095 95.345 40.8776C88.1654 40.8707 80.9845 40.8818 73.8049 40.8721C73.3809 40.9386 73.1395 40.3603 73.4523 40.0816C83.4088 27.4907 93.3735 14.904 103.335 2.31585C103.411 2.20768 103.507 2.12447 103.624 2.06761Z" fill="#FF4654"/>
<path d="M53.984 76.4494C56.1627 76.111 58.4498 76.5007 60.387 77.5714C62.2652 78.599 63.8087 80.2396 64.7266 82.1908C65.7446 84.3307 65.9819 86.8325 65.4071 89.1346C64.861 91.3632 63.5398 93.3852 61.737 94.7817C58.6542 97.2364 54.1363 97.5983 50.7036 95.6804C48.7279 94.6084 47.1254 92.8568 46.2213 90.7822C45.0826 88.2055 45.0675 85.1503 46.1774 82.5597C47.5151 79.3479 50.5691 76.9473 53.984 76.4494ZM54.5341 79.9165C52.3472 80.2507 50.4237 81.8206 49.5662 83.8717C48.6799 85.913 48.8541 88.3885 50.0354 90.2732C51.004 91.8611 52.6559 93.0177 54.4834 93.3145C56.341 93.6445 58.3194 93.0635 59.7353 91.8098C61.3501 90.4133 62.2241 88.211 62.0416 86.0725C61.9044 84.1643 60.9358 82.3337 59.4253 81.1757C58.056 80.1051 56.245 79.6322 54.5341 79.9165Z" fill="#FF4654"/>
<path d="M0.132324 76.9223C0.980208 76.6894 1.87611 76.878 2.7432 76.8114C3.0519 76.8544 3.52112 76.6935 3.69536 77.0458C3.75573 77.5048 3.71731 77.9694 3.7228 78.4326C3.7228 82.4696 3.72143 86.508 3.7228 90.545C7.22409 86.1225 10.7213 81.6971 14.2185 77.2718C14.4009 77.0416 14.6493 76.8377 14.9552 76.8322C15.9595 76.7878 16.9652 76.8377 17.9708 76.8128C18.3467 76.8197 18.7638 76.7476 19.0849 77C17.9146 78.5588 16.6743 80.0635 15.4752 81.6001C11.8806 86.1488 8.28463 90.6962 4.68867 95.2436C4.42114 95.5736 4.18653 95.937 3.86686 96.2226C3.55267 96.4848 3.11501 96.4029 2.73909 96.4237C1.87062 96.3932 0.996672 96.4709 0.132324 96.3627V76.9223Z" fill="#FF4654"/>
<path d="M24.4439 77.6268C24.8171 77.1151 25.429 76.8044 26.0587 76.8183C26.8353 76.8197 27.6132 76.8044 28.3897 76.8252C28.6573 76.7961 28.8068 77.0763 28.7725 77.3148C28.7725 83.5138 28.7725 89.7143 28.7725 95.9134C28.8082 96.1519 28.6641 96.4431 28.3897 96.4126C27.428 96.4237 26.4662 96.4237 25.5045 96.4112C25.1519 96.4209 24.8733 96.1699 24.6758 95.9023C23.0129 93.7915 21.3419 91.6877 19.679 89.577C17.986 91.7085 16.3026 93.847 14.6137 95.9827C14.4326 96.2171 14.1705 96.414 13.8632 96.4098C12.7615 96.4348 11.6584 96.4043 10.5554 96.4223C10.2851 96.4043 9.94619 96.4917 9.77881 96.2074C14.6384 89.9917 19.5638 83.8259 24.4439 77.6268ZM21.7041 86.6189C22.8456 88.0543 23.9706 89.5021 25.1203 90.9292C25.1285 88.0515 25.1258 85.1753 25.123 82.2976C23.9802 83.7357 22.8414 85.1766 21.7041 86.6189Z" fill="#FF4654"/>
<path d="M33.1285 77.3106C33.1025 77.0915 33.2205 76.8225 33.4715 76.828C34.4388 76.8045 35.4102 76.8142 36.3788 76.8239C36.6559 76.7934 36.8288 77.0707 36.7849 77.3273C36.7904 82.5223 36.7876 87.7173 36.7862 92.9137C39.4753 92.9234 42.1644 92.9068 44.8521 92.9206C45.0826 92.8707 45.2267 93.1661 45.0442 93.3228C44.3445 94.2339 43.6215 95.1284 42.9094 96.0326C42.694 96.3267 42.329 96.4459 41.9778 96.4196C39.1433 96.4099 36.3074 96.4307 33.4729 96.4099C33.2122 96.421 33.1039 96.1353 33.1285 95.9148C33.1285 89.7143 33.1272 83.5125 33.1285 77.3106Z" fill="#FF4654"/>
<path d="M68.9603 77.3176C68.8972 77.0319 69.1249 76.7725 69.4117 76.8197C74.3124 76.8141 79.2117 76.8169 84.1111 76.8183C84.3375 76.7864 84.605 76.9293 84.583 77.19C84.5981 78.5324 84.5858 79.8762 84.5885 81.2187C84.6173 81.539 84.45 81.8206 84.2551 82.0563C82.8406 83.8245 81.4494 85.6107 80.0308 87.3761C79.9608 87.5009 79.7276 87.666 79.9046 87.8102C82.0476 90.5339 84.2085 93.2451 86.3488 95.9702C86.5038 96.1006 86.5066 96.4112 86.2527 96.4043C84.9823 96.432 83.7105 96.4182 82.44 96.4112C81.942 96.4182 81.6607 95.9508 81.3849 95.6069C79.4175 93.112 77.4487 90.6185 75.4745 88.1306C75.3277 87.9475 75.1026 87.6826 75.3071 87.4566C77.1661 85.0712 79.0594 82.7109 80.9281 80.3311C78.1608 80.3186 75.3921 80.3547 72.6262 80.3131C72.5768 85.5552 72.629 90.8002 72.6002 96.0423C72.6317 96.2864 72.382 96.4487 72.1652 96.4154C71.2049 96.4154 70.2445 96.4306 69.2841 96.4085C69.0289 96.4112 68.926 96.1214 68.9589 95.9064C68.9603 89.7101 68.9589 83.5139 68.9603 77.3176Z" fill="#FF4654"/>
<path d="M89.4703 77.3273C89.4264 77.0777 89.5869 76.792 89.8641 76.8239C90.7792 76.8073 91.697 76.817 92.6135 76.8197C92.9565 76.7989 93.2885 76.9612 93.4902 77.2427C98.063 83.0257 102.634 88.8101 107.207 94.5932C107.601 95.1271 108.073 95.6069 108.415 96.1797C108.382 96.2338 108.316 96.3419 108.283 96.396C107.174 96.4529 106.062 96.396 104.952 96.421C104.514 96.4279 103.984 96.4654 103.695 96.0604C101.977 93.9067 100.276 91.7391 98.5665 89.5784C96.8735 91.7086 95.1887 93.847 93.5012 95.9814C93.3201 96.2185 93.0553 96.4127 92.7479 96.4113C91.7903 96.4251 90.8327 96.421 89.8764 96.414C89.591 96.4543 89.425 96.163 89.4703 95.9092C89.4703 89.7157 89.4717 83.5208 89.4703 77.3273ZM93.1211 82.3074C93.117 85.1836 93.117 88.0585 93.1211 90.9347C94.2626 89.498 95.3986 88.0571 96.536 86.6176C95.3959 85.1822 94.2681 83.7358 93.1211 82.3074Z" fill="#FF4654"/>
<path d="M105.594 77.3328C105.565 77.1179 105.66 76.8378 105.911 76.8322C106.823 76.7948 107.737 76.8267 108.649 76.817C109.003 76.7934 109.374 76.9112 109.589 77.2108C113.108 81.6514 116.614 86.1031 120.135 90.5409C120.135 86.135 120.134 81.729 120.135 77.3217C120.076 77.0444 120.29 76.7753 120.577 76.8197C121.543 76.8211 122.509 76.7975 123.473 76.8322C123.72 76.8419 123.81 77.1193 123.782 77.3328C123.782 83.5236 123.782 89.7143 123.782 95.9051C123.811 96.1159 123.719 96.4016 123.469 96.4057C122.51 96.4334 121.549 96.414 120.59 96.4154C120.273 96.4279 119.972 96.274 119.786 96.0202C116.271 91.5838 112.768 87.1362 109.25 82.7026C109.246 85.3029 109.257 87.9045 109.246 90.5048C109.313 90.7364 108.987 90.9347 108.848 90.7239C107.838 89.4855 106.863 88.218 105.867 86.9684C105.645 86.723 105.573 86.3929 105.59 86.0698C105.595 83.1575 105.588 80.2452 105.594 77.3328Z" fill="#FF4654"/>
<path d="M126.305 77.1886C126.276 76.9362 126.543 76.7906 126.761 76.8197C130.789 76.8128 134.817 76.8197 138.845 76.8169C139.194 76.7947 139.559 76.9099 139.771 77.2066C140.485 78.1053 141.205 79.0012 141.906 79.9109C142.091 80.0635 141.953 80.3658 141.719 80.3242C139.613 80.3408 137.506 80.3242 135.399 80.3311C135.389 85.5234 135.411 90.7156 135.41 95.9078C135.459 96.1561 135.29 96.4418 135.016 96.4126C134.054 96.421 133.091 96.4251 132.131 96.4112C131.926 96.4293 131.748 96.2462 131.768 96.0424C131.734 90.8057 131.767 85.5677 131.74 80.3311C130.078 80.327 128.415 80.3367 126.755 80.3284C126.534 80.3547 126.271 80.2008 126.305 79.9484C126.292 79.0289 126.29 78.1081 126.305 77.1886Z" fill="#FF4654"/>
</g>
<defs>
<clipPath id="clip0_107_9068">
<rect width="142" height="98" fill="white" transform="translate(0.132324 0.797607)"/>
</clipPath>
</defs>
</svg>
